<?xml version="1.0" standalone="no"?>
<!DOCTYPE svg PUBLIC "-//W3C//DTD SVG 1.1//EN" "http://www.w3.org/Graphics/SVG/1.1/DTD/svg11.dtd" >
<svg xmlns="http://www.w3.org/2000/svg">
<metadata>Generated by IcoMoon</metadata>
<defs>
<font id="StrictThemes" horiz-adv-x="512">
<font-face units-per-em="512" ascent="480" descent="-32" />
<missing-glyph horiz-adv-x="512" />
<glyph unicode="&#x20;" d="" horiz-adv-x="256" />
<glyph unicode="&#xe600;" d="M379.265 242.127l-101.137 101.138c-12.497 12.496-32.757 12.496-45.254 0l-101.137-101.138c-12.497-12.497-12.497-32.759 0-45.254 12.497-12.497 32.757-12.497 45.254 0l46.511 46.51v-115.884c0-17.672 14.326-31.999 32-31.999 17.673 0 31.999 14.327 31.999 31.999v115.885l46.512-46.511c12.496-12.497 32.756-12.497 45.253 0 12.496 12.495 12.496 32.757-0.001 45.254z" />
<glyph unicode="&#xe601;" d="M375.765 246.628l-101.138 101.137c-12.496 12.497-32.758 12.497-45.254 0-12.497-12.496-12.497-32.757 0-45.253l46.51-46.511h-115.883c-17.673 0-32-14.326-32-32s14.327-32 32-32h115.883l-46.51-46.511c-12.497-12.496-12.497-32.756 0-45.253 12.496-12.497 32.758-12.497 45.254 0l101.138 101.137c12.496 12.497 12.496 32.757 0 45.254z" />
<glyph unicode="&#xe602;" d="M379.265 251.128c-12.497 12.496-32.757 12.496-45.253 0l-46.512-46.512v115.885c0 17.672-14.326 31.999-31.999 31.999-17.673 0-32-14.327-32-31.999v-115.884l-46.511 46.511c-12.497 12.496-32.757 12.496-45.254 0-12.497-12.496-12.497-32.758 0-45.255l101.137-101.138c12.497-12.496 32.757-12.496 45.254 0l101.137 101.138c12.498 12.497 12.498 32.759 0.001 45.255z" />
<glyph unicode="&#xe603;" d="M352.001 256.001h-115.884l46.51 46.511c12.498 12.496 12.498 32.757 0 45.253-12.496 12.497-32.757 12.497-45.254 0l-101.138-101.137c-12.496-12.497-12.496-32.757 0-45.254l101.137-101.137c12.497-12.497 32.758-12.497 45.254 0 12.498 12.497 12.498 32.757 0 45.253l-46.51 46.511h115.884c17.672 0 31.999 14.326 31.999 32s-14.326 32-31.998 32z" />
<glyph unicode="&#xe604;" d="M441.148 267.191l-151.707 151.706c-18.744 18.745-49.135 18.745-67.88 0l-151.707-151.706c-18.745-18.745-18.745-49.138 0-67.882 18.746-18.745 49.137-18.745 67.883 0l69.765 69.766v-205.825c0-26.509 21.49-47.999 47.999-47.999 26.51 0 48 21.49 48 47.999v205.826l69.766-69.766c18.745-18.745 49.137-18.745 67.882 0 18.746 18.744 18.746 49.136-0.001 67.881z" />
<glyph unicode="&#xe605;" d="M449.397 257.942l-151.706 151.706c-18.745 18.746-49.138 18.746-67.881 0-18.746-18.745-18.746-49.137 0-67.882l69.766-69.766h-205.826c-26.509 0-47.999-21.49-47.999-48 0-26.509 21.49-47.999 47.999-47.999h205.825l-69.765-69.765c-18.746-18.745-18.746-49.137 0-67.883 18.744-18.745 49.136-18.745 67.881 0l151.706 151.707c18.746 18.747 18.746 49.136 0 67.882z" />
<glyph unicode="&#xe606;" d="M441.148 248.69c-18.745 18.745-49.137 18.745-67.882 0l-69.766-69.766v205.826c0 26.509-21.49 47.999-48 47.999-26.509 0-47.999-21.49-47.999-47.999v-205.825l-69.765 69.766c-18.746 18.745-49.137 18.745-67.883 0-18.745-18.744-18.745-49.137 0-67.882l151.707-151.706c18.745-18.745 49.136-18.745 67.88 0l151.707 151.706c18.748 18.745 18.748 49.137 0.001 67.881z" />
<glyph unicode="&#xe607;" d="M418.249 272.001h-205.826l69.766 69.766c18.745 18.745 18.745 49.137 0 67.882-18.744 18.746-49.137 18.746-67.882 0l-151.705-151.707c-18.745-18.746-18.745-49.136 0-67.881l151.706-151.707c18.745-18.745 49.138-18.745 67.882 0 18.745 18.746 18.745 49.138 0 67.883l-69.765 69.765h205.825c26.509 0 47.999 21.49 47.999 47.999-0.001 26.51-21.491 48-48 48z" />
<glyph unicode="&#xe608;" d="M278.627 343.766c-12.496 12.497-32.758 12.497-45.254 0l-101.138-101.138c-12.497-12.497-12.497-32.759 0-45.254 12.497-12.496 32.758-12.496 45.254 0l46.511 46.509v-115.883c0-17.673 14.327-31.999 32-31.999s32 14.326 32 31.999v115.883l46.51-46.509c12.496-12.496 32.758-12.496 45.255 0 12.496 12.495 12.496 32.757 0 45.254l-101.138 101.138zM255.999 480.002c-141.385 0-255.999-114.617-255.999-256.001s114.615-256 256-256c141.386 0 256.001 114.616 256.001 256s-114.616 256.001-256.002 256.001zM255.999 32.002c-106.038 0-191.999 85.96-191.999 191.999s85.961 192 191.999 192c106.039 0 192.001-85.961 192.001-192s-85.962-191.999-192.001-191.999z" />
<glyph unicode="&#xe609;" d="M274.627 347.765c-12.496 12.497-32.758 12.497-45.254 0-12.497-12.496-12.497-32.757 0-45.253l46.51-46.511h-115.883c-17.673 0-32-14.326-32-32s14.327-32 32-32h115.883l-46.51-46.511c-12.497-12.496-12.497-32.756 0-45.253 12.496-12.497 32.758-12.497 45.254 0l101.138 101.137c12.496 12.497 12.496 32.757 0 45.254l-101.138 101.137zM255.999 480.002c-141.384 0-255.999-114.617-255.999-256.001s114.615-256.001 255.999-256.001c141.385 0 256.001 114.617 256.001 256.001s-114.616 256.001-256.001 256.001zM255.999 32.002c-106.038 0-192 85.96-192 191.999s85.962 191.999 192 191.999c106.039 0 192.001-85.96 192.001-191.999s-85.962-191.999-192.001-191.999z" />
<glyph unicode="&#xe60a;" d="M334.51 250.628l-46.51-46.511v115.885c0 17.672-14.327 31.999-32.001 31.999-17.672 0-32-14.327-32-31.999v-115.884l-46.51 46.51c-12.497 12.497-32.758 12.497-45.254 0-12.497-12.497-12.497-32.757 0-45.254l101.137-101.138c12.497-12.496 32.757-12.496 45.254 0l101.138 101.138c12.496 12.497 12.496 32.757 0 45.254s-32.758 12.497-45.254 0zM255.999 480.002c-141.384 0-255.999-114.617-255.999-256.001s114.616-256 256-256c141.386 0 256.001 114.616 256.001 256s-114.616 256.001-256.002 256.001zM255.999 32.002c-106.038 0-191.999 85.96-191.999 191.999s85.961 192 191.999 192c106.039 0 192.001-85.961 192.001-192s-85.962-191.999-192.001-191.999z" />
<glyph unicode="&#xe60b;" d="M255.999 480.002c-141.384 0-255.999-114.617-255.999-256.001s114.615-256.001 255.999-256.001c141.385 0 256.001 114.617 256.001 256.001s-114.616 256.001-256.001 256.001zM255.999 32.002c-106.038 0-192 85.96-192 191.999s85.962 191.999 192 191.999c106.039 0 192-85.96 192-191.999s-85.961-191.999-192-191.999zM352 256.001h-115.884l46.511 46.511c12.496 12.496 12.496 32.757 0 45.253-12.496 12.497-32.758 12.497-45.255 0l-101.137-101.137c-12.497-12.497-12.497-32.757 0-45.254l101.137-101.137c12.497-12.497 32.759-12.497 45.255 0s12.496 32.757 0 45.253l-46.511 46.511h115.884c17.672 0 31.999 14.326 31.999 32s-14.327 32-31.999 32z" />
<glyph unicode="&#xe60c;" d="M468.329 326.784c-13.122 13.122-34.396 13.122-47.519 0l-166.311-166.31-166.311 166.31c-13.122 13.122-34.396 13.122-47.518 0-13.122-13.121-13.122-34.396 0-47.518l190.070-190.069c13.122-13.123 34.396-13.123 47.517 0l190.071 190.069c13.122 13.123 13.122 34.397 0.001 47.518z" />
<glyph unicode="&#xe60d;" d="M191.972 224l166.311 166.312c13.122 13.122 13.122 34.396 0 47.518-13.121 13.121-34.396 13.121-47.518 0l-190.070-190.071c-13.122-13.12-13.122-34.395 0-47.518l190.070-190.069c13.121-13.122 34.396-13.122 47.518 0 13.122 13.121 13.122 34.396 0 47.518l-166.311 166.31z" />
<glyph unicode="&#xe60e;" d="M415.999 256.003h-320c-17.673 0-32-14.328-32-32.002 0-17.672 14.327-31.999 32-31.999h320c17.673 0 32 14.327 32 31.999 0 17.674-14.327 32.002-32 32.002z" />
<glyph unicode="&#xe60f;" d="M415.999 256.003h-128.001v127.998c0 17.674-14.326 32.002-31.999 32.002-17.673 0-32-14.328-32-32.002v-127.998h-128c-17.673 0-32-14.328-32-32.002 0-17.672 14.327-31.999 32-31.999h128v-128.001c0-17.673 14.327-31.999 32-31.999s31.999 14.326 31.999 31.999v128.001h128.001c17.673 0 32 14.327 32 31.999 0 17.674-14.327 32.002-32 32.002z" />
<glyph unicode="&#xe610;" d="M352 384h-192c-35.346 0-64-28.653-64-64v-192c0-35.346 28.654-64 64-64h192c35.346 0 64 28.654 64 64v192c0 35.347-28.654 64-64 64zM384 144c0-26.51-21.49-48-48-48h-160c-26.51 0-48 21.49-48 48v160c0 26.51 21.49 48 48 48h160c26.51 0 48-21.49 48-48v-160zM320 256h-128c-17.673 0-32-14.327-32-32s14.327-32 32-32h128c17.673 0 32 14.327 32 32s-14.327 32-32 32z" />
<glyph unicode="&#xe611;" d="M352 384h-192c-35.346 0-64-28.653-64-64v-192c0-35.346 28.654-64 64-64h192c35.346 0 64 28.654 64 64v192c0 35.347-28.654 64-64 64zM384 144c0-26.51-21.49-48-48-48h-160c-26.51 0-48 21.49-48 48v160c0 26.51 21.49 48 48 48h160c26.51 0 48-21.49 48-48v-160zM320 256h-32v32c0 17.673-14.327 32-32 32s-32-14.327-32-32v-32h-32c-17.673 0-32-14.327-32-32s14.327-32 32-32h32v-32c0-17.673 14.327-32 32-32s32 14.327 32 32v32h32c17.673 0 32 14.327 32 32s-14.327 32-32 32z" />
<glyph unicode="&#xe612;" d="M144 400h-32c-17.674 0-32.001-14.326-32.001-32v-31.999c0-17.674 14.327-32 32.001-32h32c17.673 0 32 14.326 32 32v31.999c0 17.674-14.327 32-32 32zM272 400h-32.001c-17.672 0-32-14.326-32-32v-31.999c0-17.674 14.327-32 32-32h32.001c17.672 0 31.999 14.326 31.999 32v31.999c0 17.674-14.327 32-31.999 32zM400 400h-32.001c-17.672 0-31.999-14.326-31.999-32v-31.999c0-17.674 14.327-32 31.999-32h32.001c17.673 0 32 14.326 32 32v31.999c0 17.674-14.327 32-32 32zM144 272.002h-32c-17.674 0-32.001-14.328-32.001-32.002v-31.999c0-17.674 14.327-32 32.001-32h32c17.673 0 32 14.326 32 32v31.999c0 17.674-14.327 32.002-32 32.002zM272 272.002h-32.001c-17.672 0-32-14.328-32-32.002v-31.999c0-17.674 14.327-32 32-32h32.001c17.672 0 31.999 14.326 31.999 32v31.999c0 17.674-14.327 32.002-31.999 32.002zM400 272.002h-32.001c-17.672 0-31.999-14.328-31.999-32.002v-31.999c0-17.674 14.327-32 31.999-32h32.001c17.673 0 32 14.326 32 32v31.999c0 17.674-14.327 32.002-32 32.002zM144 144.001h-32c-17.674 0-32.001-14.327-32.001-31.999v-32.002c0-17.671 14.327-31.999 32.001-31.999h32c17.673 0 32 14.328 32 31.999v32.002c0 17.672-14.327 31.999-32 31.999zM272 144.001h-32.001c-17.672 0-32-14.327-32-31.999v-32.002c0-17.671 14.327-31.999 32-31.999h32.001c17.672 0 31.999 14.328 31.999 31.999v32.002c0 17.672-14.327 31.999-31.999 31.999zM400 144.001h-32.001c-17.672 0-31.999-14.327-31.999-31.999v-32.002c0-17.671 14.327-31.999 31.999-31.999h32.001c17.673 0 32 14.328 32 31.999v32.002c0 17.672-14.327 31.999-32 31.999z" />
<glyph unicode="&#xe613;" d="M416 128.001h-320c-17.673 0-32-14.327-32-31.999 0-17.674 14.327-32.002 32-32.002h320c17.672 0 31.999 14.328 31.999 32.002 0 17.672-14.327 31.999-31.999 31.999zM416 256.002h-320c-17.673 0-32-14.328-32-32.002 0-17.672 14.327-31.999 32-31.999h320c17.672 0 31.999 14.327 31.999 31.999 0 17.674-14.327 32.002-31.999 32.002zM96 320.001h320c17.672 0 31.999 14.326 31.999 31.999 0 17.674-14.327 32-31.999 32h-320c-17.673 0-32-14.326-32-32 0-17.673 14.327-31.999 32-31.999z" />
<glyph unicode="&#xe614;" d="M128 400h-32c-17.673 0-32-14.326-32-32v-31.999c0-17.674 14.327-32 32-32h32c17.672 0 32 14.326 32 32v31.999c0 17.674-14.328 32-32 32zM128 272.002h-32c-17.673 0-32-14.328-32-32.002v-31.999c0-17.674 14.327-32 32-32h32c17.672 0 32 14.326 32 32v31.999c0 17.674-14.328 32.002-32 32.002zM128 144.001h-32c-17.673 0-32-14.327-32-31.999v-32.002c0-17.671 14.327-31.999 32-31.999h32c17.672 0 32 14.328 32 31.999v32.002c0 17.672-14.328 31.999-32 31.999zM416 400h-192c-17.673 0-32-14.326-32-32v-31.999c0-17.674 14.326-32 32-32h192c17.673 0 32 14.326 32 32v31.999c0 17.674-14.327 32-32 32zM416 272.002h-192c-17.673 0-32-14.328-32-32.002v-31.999c0-17.674 14.326-32 32-32h192c17.673 0 32 14.326 32 32v31.999c0 17.674-14.327 32.002-32 32.002zM416 144.001h-192c-17.673 0-32-14.327-32-31.999v-32.002c0-17.671 14.326-31.999 32-31.999h192c17.673 0 32 14.328 32 31.999v32.002c0 17.672-14.327 31.999-32 31.999z" />
<glyph unicode="&#xe615;" d="M351.999 448.010h-192.001c-35.346 0-64-28.656-64-64.001v-320.004c0-35.347 28.653-64.001 64-64.001h192.001c35.346 0 63.999 28.654 63.999 64.001v320.004c0 35.345-28.653 64.001-63.999 64.001zM293.998 32.006h-75.999c-8.837 0-16 7.168-16 16.004 0 8.835 7.163 15.995 16 15.995h75.999c8.837 0 16-7.16 16-15.995 0-8.836-7.163-16.004-16-16.004zM351.999 128.006c0-17.671-14.327-31.997-32.002-31.997h-127.998c-17.674 0-32.001 14.326-32.001 31.997v223.999c0 17.672 14.328 32.004 32.001 32.004h127.998c17.675 0 32.002-14.332 32.002-32.004v-223.999z" />
<glyph unicode="&#xe616;" d="M383.999 480.010h-256.001c-35.346 0-64-28.656-64-64.002v-384.002c0-35.348 28.653-64.003 64-64.003h256.001c35.347 0 63.999 28.655 63.999 64.003v384.002c0 35.346-28.652 64.002-63.999 64.002zM293.998 0.006h-75.999c-8.837 0-16 7.168-16 16.003 0 8.837 7.163 15.997 16 15.997h75.999c8.837 0 16-7.16 16-15.997 0-8.835-7.163-16.003-16-16.003zM383.999 96.007c0-17.672-14.327-32-32.001-32h-191.998c-17.674 0-32.001 14.328-32.001 32v287.998c0 17.672 14.328 32.003 32.001 32.003h191.999c17.674 0 32.001-14.331 32.001-32.003v-287.998z" />
<glyph unicode="&#xe617;" d="M447.999 464h-383.999c-35.346 0-64-28.652-64-63.999v-256.001c0-35.345 28.654-63.999 64-63.999h384c35.346 0 64 28.654 64 63.999v256.001c0 35.347-28.654 63.999-64.001 63.999zM447.999 144h-383.999v256.001h384v-256.001zM480 48h-448c-17.673 0-32-14.327-32-32s14.327-32 32-32h448c17.673 0 32 14.327 32 32s-14.327 32-32 32z" />
<glyph unicode="&#xe618;" d="M480 480.001h-448c-17.673 0-32-14.326-32-32v-448c0-17.674 14.327-31.999 32-31.999h448c17.673 0 31.999 14.325 31.999 31.999v448c0 17.674-14.326 32-31.999 32zM192 448.001c17.672 0 32-14.326 32-32 0-17.673-14.327-31.999-32-31.999-17.674 0-32.001 14.326-32.001 31.999 0 17.674 14.327 32 32.001 32zM95.999 448.001c17.674 0 32-14.326 32-32 0-17.673-14.327-31.999-32-31.999-17.672 0-32 14.326-32 31.999 0.001 17.674 14.328 32 32 32zM447.999 32.001h-383.999v319.999h384v-319.999z" />
<glyph unicode="&#xe619;" d="M480 352h-64v96.001c0 17.674-14.327 32-32.001 32h-351.999c-17.673 0-32-14.326-32-32v-351.999c0-17.674 14.327-32.002 32-32.002h96v-63.999c0-17.674 14.327-31.999 32-31.999h320c17.673 0 32 14.325 32 31.999v320c0 17.673-14.327 31.999-32 31.999zM192 448.001c17.672 0 32-14.326 32-32 0-17.673-14.327-31.999-32-31.999-17.674 0-32.001 14.326-32.001 31.999 0 17.674 14.327 32 32.001 32zM95.999 448.001c17.674 0 32-14.326 32-32 0-17.673-14.327-31.999-32-31.999-17.672 0-32 14.326-32 31.999 0.001 17.674 14.328 32 32 32zM64 128.001v223.999h288v-223.999h-288zM447.999 32.001h-255.999v31.999h191.999c17.674 0 32.001 14.328 32.001 32.002v127.998h31.999v-191.999z" />
<glyph unicode="&#xe61a;" d="M480 110c-64 112-64 112-160 272-48 80-80 80-128 0-96-160-96-160-160-272-35.501-62.126-32-96 32-96h384c64 0 67.501 33.874 32 96zM256 48c-17.673 0-32 14.327-32 32s14.327 32 32 32c17.673 0 32-14.327 32-32s-14.327-32-32-32zM288 176c0-17.673-14.327-32-32-32s-32 14.327-32 32v128c0 17.673 14.327 32 32 32s32-14.327 32-32v-128z" />
<glyph unicode="&#xe61b;" d="M255.999 448.001c-123.711 0-224-100.288-224-224.001 0-123.711 100.289-223.999 224-223.999 123.713 0 224 100.288 224 223.999 0 123.713-100.287 224.001-224 224.001zM255.999 64c-17.672 0-32 14.328-32 32.002 0 17.671 14.327 31.999 32 31.999 17.674 0 32.001-14.328 32.001-31.999 0-17.674-14.327-32.002-32.001-32.002zM288 192c0-17.673-14.327-31.999-32.001-31.999-17.672 0-32 14.326-32 31.999v160c0 17.674 14.327 32.002 32 32.002 17.674 0 32.001-14.328 32.001-32.002v-160z" />
<glyph unicode="&#xe61c;" d="M255.999 400.001c-141.384 0-255.999-176.001-255.999-176.001s114.616-175.998 256-175.998c141.384 0 256 175.998 256 175.998s-114.616 176.001-256.001 176.001zM255.999 112.001c-61.855 0-112 50.144-112 111.999 0 61.857 50.145 112.002 112 112.002 61.856 0 112.001-50.145 112.001-112.002 0-61.855-50.145-111.999-112.001-111.999zM255.999 272.001c-26.509 0-47.999-21.49-47.999-48.001 0-26.508 21.49-47.998 47.999-47.998 26.511 0 48.001 21.49 48.001 47.998 0 26.511-21.49 48.001-48.001 48.001z" />
<glyph unicode="&#xe61d;" d="M384 319c0 61.855-50.145 112-112 112-45.632 0-84.885-27.292-102.339-66.441-17.61 21.049-44.070 34.441-73.661 34.441-53.020 0-96-42.98-96-96 0-14.821 3.361-28.855 9.358-41.388-5.782-5.79-9.358-13.783-9.358-22.612v-192c0-17.673 14.327-32 32-32h288c17.673 0 32 14.327 32 32v192c0 0.532-0.015 1.061-0.040 1.587 19.815 20.204 32.040 47.879 32.040 78.413zM96 270.663c-17.859 0-32.337 14.478-32.337 32.337s14.478 32.337 32.337 32.337 32.337-14.478 32.337-32.337-14.478-32.337-32.337-32.337zM272 271c-26.51 0-48 21.49-48 48s21.49 48 48 48 48-21.49 48-48-21.49-48-48-48zM472 231l-88-41.066v-93.867l88-41.067c16-8 40 0 40 24v128c0 24-24 32-40 24z" />
<glyph unicode="&#xe61e;" d="M320 112l-96.001 64.001v32.603c19.638 23.437 32.001 57.49 32.001 95.398 0 70.691-42.981 127.998-96.001 127.998-53.019 0-96-57.307-96-127.998 0-37.908 12.363-71.961 32-95.398v-32.603l-63.999-64.001c0 0-32-30.5-32-64 0-32 0-31.998 0-31.998h352c0 0 0-0.002 0 31.998 0 42.5-32 64-32 64zM399.171 163.32c18.762 20.496 30.828 52.448 30.828 88.348 0 61.855-35.816 112-79.999 112-44.184 0-84-50.145-84-112 0-45.668 21.705-84.946 50.847-102.38l22.403-15.538c0 0 44.75-27.5 44.75-87.75 0-26.742 0-29.737 0-30l127.999 0.002v63.999l-112.828 83.319z" />
<glyph unicode="&#xe61f;" d="M416 112l-96.001 64.001v32.603c19.638 23.437 32.001 57.49 32.001 95.397 0 70.692-42.981 128-96 128-53.020 0-96.001-57.308-96.001-128 0-37.907 12.363-71.959 32.001-95.397v-32.603l-96-64.001c0 0-32-21-32-64 0-32 0-31.999 0-31.999h384c0 0 0.001-0.001 0.001 31.999-0.001 42.25-32.001 64-32.001 64z" />
<glyph unicode="&#xe620;" d="M432 192c0 0-80 0-112 0 0-64-48-64-48-64h-32c0 0-48 0-46 64-30 0-114 0-114 0-26.51 0-48-21.49-48-48v-96c0-26.51 21.49-48 48-48h352c26.51 0 48 21.49 48 48v96c0 26.51-21.49 48-48 48zM400 64h-32c-8.837 0-16 7.163-16 16s7.163 16 16 16h32c8.837 0 16-7.163 16-16s-7.163-16-16-16zM176.991 296.873l46.511 46.51v-151.884c0-17.672 14.326-31.999 32-31.999 17.673 0 31.999 14.327 31.999 31.999v151.885l46.512-46.511c12.496-12.497 32.756-12.497 45.253 0 12.497 12.495 12.497 32.757 0 45.254l-101.138 101.138c-12.497 12.496-32.757 12.496-45.254 0l-101.137-101.138c-12.497-12.497-12.497-32.759 0-45.254 12.497-12.497 32.757-12.497 45.254 0z" />
<glyph unicode="&#xe621;" d="M408.9 339.048c-6.449 61.257-57.158 108.954-118.768 108.954-49.312 0-91.641-30.558-109.883-74.167-8.386 2.817-17.343 4.347-26.651 4.347-47.127 0-85.333-39.073-85.333-87.272 0-7.758 0.995-15.278 2.853-22.438-41.253-13.522-71.118-53.063-71.118-99.744 0-57.839 45.846-104.727 102.4-104.727h89.6v63.999c0 0 0 0-16 0s-80 32-16 96l80 80c16 16 48 16 64 0l80-80c64-64 0-96-16-96s-16 0-16 0v-63.999h23.466c75.406 0 136.534 62.517 136.534 139.637 0 65.32-43.858 120.158-103.1 135.41zM352 208c-32 32-21.307 21.307-53 53-16 16-38 16-54 0-30.066-30.066-21-21-53-53s-32-48 16-48h16v-111.998c0-26.511 21.49-48 48-48 26.509 0 47.999 21.489 47.999 48l0.001 111.998h16c48 0 48 16 16 48z" />
<glyph unicode="&#xe622;" d="M511.999 224.007c0.001 63.993-31.999 159.993-96 159.998-32.001 0.005 0.001-0.005-31.999-0.005-48 0.75-64-31.25-64-63.25s0-0.75 0-32.75 0-64-32-64h-224c-32 0-64 0-64-32s0-14.238 0-32c0-32 0-64 32-64h33.383c-0.894-4.698-1.383-9.536-1.383-14.488 0-43.355 35.817-78.503 80-78.503 44.182 0 79.999 35.147 79.999 78.503 0 4.952-0.489 9.79-1.383 14.488h66.768c-0.894-4.698-1.383-9.536-1.383-14.488 0-43.355 35.816-78.503 79.999-78.503s79.999 35.147 79.999 78.503c0 4.952-0.489 9.79-1.383 14.488h33.384c32 0 32 32 32 64s0 32-0.001 64.007zM144 44c-19.882 0-36 16.118-36 36s16.118 36 36 36 36-16.118 36-36-16.118-36-36-36zM368 44c-19.882 0-36 16.118-36 36s16.118 36 36 36 36-16.118 36-36-16.118-36-36-36zM384 224c-32 0-32 32-32 64 0 28.259 0 32 0 32s0 32 32 32 0 0 32 0 64-64 64-128h-96zM32 256h224c17.673 0 32 14.327 32 32v128c0 17.673-14.327 32-32 32h-224c-17.673 0-32-14.327-32-32v-128c0-17.673 14.327-32 32-32z" />
<glyph unicode="&#xe623;" d="M208 64c17.673 0 32 14.328 32 32.002v191.999c0 17.674-14.326 32-32 32s-32-14.326-32-32v-191.999c0-17.674 14.326-32.002 32-32.002zM463.999 416.001h-160v32c0 17.674-14.327 32-31.999 32h-32.001c-17.672 0-32-14.326-32-32v-32h-159.999c-17.673 0-32-14.327-32-31.999 0-17.674 14.327-32.002 32-32.002h32v-351.999c0-17.674 14.327-31.999 32.001-31.999h288c17.673 0 31.999 14.325 31.999 31.999v351.999h32c17.673 0 32 14.328 32 32.002 0 17.672-14.327 31.999-32.001 31.999zM367.999 32.001h-223.999v319.999h224v-319.999zM303.999 64c17.674 0 32.001 14.328 32.001 32.002v191.999c0 17.674-14.327 32-32.001 32-17.673 0-31.999-14.326-31.999-32v-191.999c0-17.674 14.326-32.002 31.999-32.002z" />
<glyph unicode="&#xe624;" d="M472.515 310.749l-44.449 153.7-159.999 0.366c0 0-44.815-6.3-64.073-31.854l-173.326-230.005c-21.271-28.229-15.633-68.357 12.595-89.631l153.337-115.549c28.229-21.272 68.358-15.633 89.629 12.597l173.324 230.005c19.26 25.557 19.26 25.557 12.962 70.371zM382.887 298.153c-21.272-28.229-61.4-33.869-89.63-12.596-28.229 21.272-33.868 61.399-12.595 89.628 21.271 28.229 61.399 33.869 89.629 12.596 28.228-21.272 33.868-61.401 12.596-89.628z" />
<glyph unicode="&#xe625;" d="M448 288c-64 32-240.603 120.302-320 160-64 32-128 32-128-32 0-101.136 0-282.864 0-384 0-64 64-64 128-32 66.338 33.169 256 128 320 160s64 96 0 128z" />
<glyph unicode="&#xe626;" d="M512 224.103c-0.026 65.482-25.019 130.956-74.98 180.917-99.974 99.974-262.063 99.974-362.038 0-99.975-99.975-99.975-262.064 0-362.038 99.974-99.975 262.064-99.975 362.038 0 49.962 49.961 74.954 115.435 74.98 180.917v0.204zM371.971 377.042c-11.861-6.602-24.683-16.322-36.862-28.501-13.777-13.777-24.421-28.38-30.945-41.479-29.715 17.252-66.7 17.237-96.402-0.049-6.538 13.081-17.186 27.669-30.956 41.439-12.182 12.182-25 21.909-36.853 28.521 68.368 52 163.628 52.026 232.018 0.069zM301.262 178.75c-0.002-0.002-0.004-0.003-0.006-0.005s-0.003-0.004-0.005-0.006c-24.995-24.986-65.514-24.984-90.506 0.006-24.992 24.994-24.992 65.517 0 90.511 24.992 24.991 65.511 24.993 90.506 0.006 0.002-0.002 0.003-0.004 0.005-0.006s0.004-0.003 0.006-0.005c24.985-24.993 24.985-65.508 0-90.501zM102.96 108.031c-51.956 68.389-51.931 163.649 0.069 232.018 6.612-11.853 16.339-24.67 28.521-36.853 13.771-13.771 28.358-24.417 41.44-30.956-17.287-29.703-17.301-66.688-0.049-96.401-13.099-6.524-27.702-17.168-41.479-30.945-12.18-12.18-21.9-25.001-28.502-36.863zM140.031 70.96c11.861 6.602 24.683 16.321 36.862 28.501 13.778 13.777 24.421 28.381 30.945 41.479 29.714-17.252 66.7-17.237 96.403 0.049 6.538-13.081 17.186-27.669 30.956-41.439 12.182-12.182 24.999-21.909 36.852-28.521-68.368-52.001-163.628-52.026-232.018-0.069zM408.973 107.952c-6.612 11.853-16.34 24.671-28.521 36.853-13.771 13.771-28.358 24.417-41.439 30.956 17.286 29.702 17.301 66.688 0.049 96.402 13.099 6.525 27.701 17.168 41.479 30.945 12.18 12.18 21.899 25.002 28.502 36.863 51.956-68.39 51.931-163.651-0.070-232.019z" />
<glyph unicode="&#xe627;" d="M511.966 284.431l-171.597 34.662-84.37 160.896-84.372-160.896-171.594-34.662 119.449-134.104-21.682-182.314 158.199 78.024 158.198-78.024-21.683 182.314 119.452 134.104zM257.149 114.747l-88.987-43.89 12.196 102.552-67.19 75.435 104.813 18.399 39.167 91.601 47.458-90.504 96.522-19.496-67.19-75.435 12.196-102.552-88.985 43.89z" />
<glyph unicode="&#xe628;" d="M511.966 284.431l-171.597 34.662-84.37 160.896-84.372-160.896-171.594-34.662 119.449-134.104-21.682-182.314 158.199 78.024 158.198-78.024-21.683 182.314 119.452 134.104zM257.149 114.747v244.097l47.458-90.504 96.522-19.496-67.19-75.435 12.196-102.552-88.986 43.89z" />
<glyph unicode="&#xe629;" d="M511.966 284.431l-171.597 34.662-84.37 160.896-84.372-160.896-171.594-34.662 119.449-134.104-21.682-182.314 158.199 78.024 158.198-78.024-21.682 182.314z" />
<glyph unicode="&#xe62a;" d="M75.986 128.119l195.764 195.764v124.117l-128-128h-64c-35.346 0-64-28.653-64-64v-64c0-34.081 26.643-61.932 60.236-63.881zM271.75 0v188.117l-94.059-94.059 94.059-94.058zM436.142 420.392c-6.248 6.249-16.379 6.249-22.627 0l-390.157-390.157c-6.248-6.248-6.248-16.379 0-22.627 6.249-6.249 16.379-6.249 22.627 0l390.157 390.157c6.249 6.248 6.249 16.379 0 22.627z" />
<glyph unicode="&#xe62b;" d="M432 223.5c0 65.608-39.494 121.982-96 146.673v-53.2c29.757-20.414 49.28-54.661 49.28-93.473s-19.523-73.060-49.28-93.474v-53.2c56.506 24.692 96 81.067 96 146.674zM336 450.214v-45.654c74.569-26.359 128-97.463 128-181.060 0-83.596-53.431-154.7-128-181.060v-45.654c98.973 27.883 171.52 118.823 171.52 226.714 0 107.89-72.547 198.831-171.52 226.714zM80 319.5c-35.346 0-64-28.653-64-64v-64c0-35.346 28.654-64 64-64h64l128-128v448l-128-128h-64z" />
<glyph unicode="&#xe62c;" d="M64 160c-17.673 0-32-14.327-32-32v-64c0-17.673 14.327-32 32-32s32 14.327 32 32v64c0 17.673-14.327 32-32 32zM160 224c-17.673 0-32-14.327-32-32v-128c0-17.673 14.327-32 32-32s32 14.327 32 32v128c0 17.673-14.327 32-32 32zM256 288c-17.673 0-32-14.327-32-32v-192c0-17.673 14.327-32 32-32s32 14.327 32 32v192c0 17.673-14.327 32-32 32zM352 352c-17.673 0-32-14.327-32-32v-256c0-17.673 14.327-32 32-32s32 14.327 32 32v256c0 17.673-14.327 32-32 32zM448 416c-17.673 0-32-14.327-32-32v-320c0-17.673 14.327-32 32-32s32 14.327 32 32v320c0 17.673-14.327 32-32 32z" />
<glyph unicode="&#xe62d;" d="M416 464h-320c-35.346 0-64-28.653-64-64v-258c0-35.346 35.346-64 96-96s128-64 128-64 64 32 128 64 96 60.654 96 96v258c0 35.347-28.654 64-64 64zM416 190c0-32 0-48-64-80-32-16-96-48-96-48v338h112c32 0 48 0 48-48 0 0 0-128 0-162z" />
<glyph unicode="&#xe62e;" d="M464.057 179.264l-35.448 19.449c1.181 8.197 1.804 16.575 1.804 25.1 0 8.445-0.612 16.746-1.771 24.87l41.821 22.947c16.965 9.305 5.83 36.933-11.033 64.692-15.778 25.968-35.66 49.395-52.621 40.085l-37.065-20.337c-14.559 12.535-31.208 22.703-49.355 29.905v31.736c0 24.239-46.889 30.295-63.359 30.295-17.001 0-63.757-6.056-63.757-30.295v-31.273c-18.759-7.284-35.947-17.72-50.907-30.669l-31.686 17.385c-23.012 12.622-50.426-23.927-58.398-37.052-8.769-14.43-28.162-54.94-5.16-67.567l36.666-20.117c-1.135-8.040-1.734-16.251-1.734-24.604 0-8.365 0.602-16.588 1.739-24.638l-41.67-22.863c-16.014-8.789-6.406-37.541 9.919-64.409 16.321-26.866 37.72-49.154 53.736-40.371l36.768 20.174c14.918-12.879 32.043-23.263 50.728-30.519v-30.497c0-24.229 47.021-30.295 62.96-30.295 17.533 0 64.156 6.066 64.156 30.295v30.959c18.138 7.197 34.778 17.359 49.331 29.884l30.78-16.888c22.087-12.12 51.051 23.443 59.287 36.994 8.498 13.995 26.355 55.502 4.269 67.624zM256.169 159.728c-35.383 0-64.066 28.711-64.066 64.134 0 35.422 28.683 64.137 64.066 64.137s64.067-28.715 64.067-64.137c0-35.424-28.683-64.134-64.067-64.134z" />
<glyph unicode="&#xe62f;" d="M465.195 82.687l-64.511 64.511c-12.561 12.561-30.348 16.691-46.359 12.418l-6.068 6.068c22.426 29.538 35.742 66.37 35.742 106.317 0 97.202-78.798 176-176 176-97.202 0-176-78.798-176-176 0-97.203 78.797-176.001 176-176.001 39.947 0 76.779 13.316 106.317 35.742l6.068-6.068c-4.272-16.012-0.142-33.799 12.419-46.359l64.51-64.511c18.745-18.743 49.137-18.743 67.883 0 18.743 18.747 18.743 49.138-0.001 67.883zM207.999 160.002c-61.855 0-112 50.145-112 112 0 61.854 50.144 111.999 112 111.999 61.857 0 112-50.145 112-111.999 0-61.856-50.144-112-112-112z" />
<glyph unicode="&#xe630;" d="M205.5 448h-32c-35.346 0-71.803-28.653-81.429-64l-87.142-320c-9.625-35.346 11.225-64 46.571-64h32c35.346 0 71.803 28.654 81.429 64l87.143 320c9.625 35.347-11.226 64-46.572 64zM461.5 448h-32c-35.347 0-71.803-28.653-81.429-64l-87.143-320c-9.625-35.346 11.226-64 46.571-64h32c35.346 0 71.803 28.654 81.429 64l87.143 320c9.626 35.347-11.225 64-46.571 64z" />
<glyph unicode="&#xe631;" d="M480 256h-32.001v64.002l-159.999 160h-160c-35.346 0-64-28.654-64-64.001v-160.001h-32c-17.673 0-32-14.327-32-32v-96c0-17.673 14.327-32 32-32h32v-63.998c0-35.348 28.654-64.001 64-64.001h256c35.347 0 64 28.653 64 64.001v63.998h32c17.673 0 32 14.327 32 32v96c0 17.673-14.327 32-32 32zM128 352c0 64 32 64 64 64s64 0.001 64 0.001 0-0.001 0-64.001 32-64 64-64 63.999 0 63.999 0 0-12.66 0-32h-255.999c0 37.475 0 72.959 0 96zM320 32c0 0-96.001 0.003-128 0.002-32-0.002-64-0.002-64 63.998h256c0-64-32-64-64-64zM432 160h-64c-8.837 0-16 7.163-16 16s7.163 16 16 16h64c8.837 0 16-7.163 16-16s-7.163-16-16-16z" />
<glyph unicode="&#xe632;" d="M0 64.001c0-35.347 28.654-64.001 64-64.001h384c35.346 0 64 28.654 64 64.001v63.999h-512v-63.999zM448 352.001h-96v64c0 17.673-14.327 31.999-32.001 31.999h-127.999c-17.673 0-32-14.326-32-31.999v-64h-96c-35.346 0-64-28.653-64-64.001v-127.998h192v32c0 17.673 14.326 31.999 32 31.999h64c17.672 0 31.999-14.326 31.999-31.999v-32h192.001v127.998c0 35.348-28.654 64.001-64 64.001zM304 352.001h-96c-8.836 0-16 7.164-16 15.999 0 8.837 7.163 16.001 16 16.001h96c8.836 0 15.999-7.164 15.999-16.001 0-8.835-7.163-15.999-15.999-15.999z" />
<glyph unicode="&#xe633;" d="M256 480.001c-141.385 0-256-114.615-256-256.001 0-141.384 114.615-255.999 256-255.999 141.384 0 255.999 114.615 255.999 255.999 0 141.386-114.615 256.001-255.999 256.001zM365.225 193.024l-114.157-77.442c-25.219-17.106-91.068-19.582-91.068 44.418v128c0 64 65.849 61.526 91.067 44.42l114.157-77.442c25.218-17.108 25.218-44.846 0.001-61.954z" />
<glyph unicode="&#xe634;" d="M356.935 431.54c-83.714-103.285-83.714-134.581-111.615-143.957-120.918 9.376-164.32-18.78-164.32-18.78l241.828-244.106c0 0 27.903 43.803 18.604 165.871 9.299 28.152 40.303 28.152 142.617 112.665 93.009 93.873-71.312 222.187-127.114 128.307zM0.387-15.999h40.306l161.219 125.188-52.706 53.201-148.819-178.389z" />
<glyph unicode="&#xe635;" d="M256 480.001c-106.039 0-192-85.961-192-192 0-128 192-319.999 192-319.999s191.999 191.999 191.999 319.999c0 106.039-85.961 192-191.999 192zM256 192.001c-53.020 0-96.001 42.979-96.001 96 0 53.019 42.981 95.999 96.001 95.999 53.019 0 96-42.98 96-95.999 0-53.021-42.981-96-96-96z" />
<glyph unicode="&#xe636;" d="M447.999 384.002c-31.999 0-29.239 0-64 0-31.999 0-31.999 63.999-95.999 63.999h-64c-64 0-64-63.999-96-63.999h-64c-32 0-64-32.002-64-64.001v-256.001c0-31.999 32-63.999 64-63.999h384c32.001 0 64 32 64 63.999v256.001c-0.001 20.782-32 64.001-64.001 64.001zM255.93 69.684c-75.883 0-137.399 61.877-137.399 138.205s61.516 138.204 137.399 138.204c75.884 0 137.4-61.876 137.4-138.204s-61.516-138.205-137.4-138.205zM255.945 282.67c-41.045 0-74.32-33.47-74.32-74.757 0-41.284 33.275-74.754 74.32-74.754 41.047 0 74.322 33.47 74.322 74.754 0.001 41.287-33.275 74.757-74.322 74.757z" />
<glyph unicode="&#xe637;" d="M31.999 89.606l-0.001-89.6h89.602l-25.6 63.994-64.001 25.606zM435.199 403.205l-74.667 44.802-59.733-59.731 83.201-36.276 36.266-83.193 59.732 59.734-44.799 74.664zM276.265 365.604l-214.4-216.264 82.135-37.34 37.332-82.128 216.267 216.27-33.599 85.858-87.735 33.604z" />
<glyph unicode="&#xe638;" d="M128 480c-35.346 0-64-28.653-64-64v-384c0-35.346 28.654-64 64-64s64 28.654 64 64v384c0 35.347-28.654 64-64 64zM384 480c-35.347 0-64-28.653-64-64v-384c0-35.346 28.653-64 64-64 35.346 0 64 28.654 64 64v384c0 35.347-28.654 64-64 64z" />
<glyph unicode="&#xe639;" d="M416 384.002h-320.001c-35.346 0-63.999-28.654-63.999-64.001v-192c0-35.347 28.653-64.001 63.999-64.001h320.001c35.346 0 64 28.654 64 64.001v192c0 35.347-28.654 64.001-64 64.001zM153.35 157.661l-49.31-49.825c-7.869-7.438-20.628-7.438-28.497 0-7.869 7.44-7.869 19.501 0 26.939l49.31 49.823c7.869 7.438 20.627 7.438 28.497 0 7.869-7.438 7.869-19.498 0-26.937zM270.977 147.244c-4.207-3.978-9.777-5.86-15.289-5.688-5.519-0.178-11.099 1.705-15.311 5.688-1.706 1.613-3.029 3.446-4.014 5.394l-160.68 160.375c-8.066 7.628-8.066 19.991 0 27.616 8.066 7.626 21.145 7.626 29.212 0l150.781-150.499 150.783 150.499c8.067 7.626 21.146 7.626 29.212 0 8.067-7.625 8.067-19.988 0-27.616l-160.682-160.378c-0.984-1.947-2.306-3.779-4.012-5.391zM435.777 107.882c-7.931-7.496-20.788-7.496-28.719 0l-49.608 50.703c-7.93 7.498-7.93 19.653 0 27.149 7.931 7.498 20.789 7.498 28.72 0l49.607-50.703c7.931-7.496 7.931-19.651 0-27.149z" />
<glyph unicode="&#xe63a;" d="M447.999 416.001h-383.999c-35.347 0-64-28.653-64-64.001v-255.998c0-35.348 28.654-64.001 64-64.001h384c35.347 0 64 28.653 64 64.001v255.998c-0.001 35.348-28.654 64.001-64.001 64.001zM452.626 312.398l-171.117-171.116c-1.053-1.593-2.28-3.104-3.683-4.507-5.729-5.729-13.27-8.533-20.776-8.426-7.507-0.107-15.048 2.697-20.777 8.426-1.402 1.402-2.629 2.913-3.682 4.506l-171.118 171.117c-11.247 11.247-11.247 29.48 0 40.729 11.248 11.247 29.482 11.247 40.729 0l154.848-154.848 154.847 154.848c11.247 11.247 29.482 11.247 40.729 0 11.247-11.248 11.247-29.481 0-40.729z" />
<glyph unicode="&#xe63b;" d="M447.998 416.003h-384c-35.346 0-64-28.654-64-64.002v-256c0-35.345 28.654-63.999 64-63.999h384c35.348 0 64 28.654 64 63.999v256c0 35.348-28.652 64.002-64 64.002zM383.999 352.001l-128-128-128 128h256zM447.998 96.001h-384v256l192-191.999 191.999 191.999v-256z" />
<glyph unicode="&#xe63c;" d="M280.324 295.196c0 0 71.368-71.229 23.789-118.715-23.789-23.744-95.159-94.975-118.948-118.717-47.58-47.487-95.16 0-95.16 0s-47.58 47.487 0 94.973c23.79 23.744-23.791 71.229-47.58 47.487-95.16-94.973 0-189.947 0-189.947s95.159-94.973 190.318 0c23.791 23.744 47.581 47.487 118.949 118.717 95.16 94.973-23.789 213.689-23.789 213.689l-47.579-47.487zM470.643 437.658c0 0-95.159 94.973-190.318 0-47.581-47.487-82.914-82.752-118.95-118.717-95.16-94.975 23.791-213.689 23.791-213.689l47.579 47.485c0 0-71.369 71.229-23.79 118.717 26.934 26.882 95.159 94.973 118.949 118.717 47.58 47.487 95.159 0 95.159 0s47.58-47.487 0-94.975c-23.79-23.742 23.79-71.229 47.58-47.485 26.433 26.381 38.176 52.761 41.357 77.107v28.921c-6.213 48.839-41.357 83.919-41.357 83.919z" />
<glyph unicode="&#xe63d;" d="M208 400h-96c-17.674 0-32.001-14.326-32.001-32v-95.998c0-17.674 14.327-32.002 32.001-32.002h96c17.673 0 32 14.328 32 32.002v95.998c-0.001 17.674-14.327 32-32 32zM208 208.001h-96c-17.674 0-32.001-14.326-32.001-32v-96.001c0-17.671 14.327-31.999 32.001-31.999h96c17.673 0 32 14.328 32 31.999v96.001c-0.001 17.674-14.327 32-32 32zM400 400h-96.001c-17.673 0-31.999-14.326-31.999-32v-95.998c0-17.674 14.326-32.002 31.999-32.002h96.001c17.673 0 31.999 14.328 31.999 32.002v95.998c0 17.674-14.326 32-31.999 32zM400 208.001h-96.001c-17.673 0-31.999-14.326-31.999-32v-96.001c0-17.671 14.326-31.999 31.999-31.999h96.001c17.673 0 31.999 14.328 31.999 31.999v96.001c0 17.674-14.326 32-31.999 32z" />
<glyph unicode="&#xe63e;" d="M64 166.847c0-101.512 72.159-185.41 165.832-198.847h52.795c93.673 13.437 165.832 97.335 165.832 198.847 0 110.865-138.405 313.153-192.23 313.153s-192.229-202.288-192.229-313.153zM328.315 82.536c26.541 6.145-2.018-48.178-72.086-48.178-70.069 0-126.872 59.317-126.872 132.488s38.688 102.268 35.563 69.255c-9.174-96.88 74.794-174.077 163.395-153.565z" />
<glyph unicode="&#xe63f;" d="M255.999 448c-123.711 0-223.999-100.286-223.999-223.999s100.288-224.001 223.999-224.001c123.712 0 224 100.288 224 224.001s-100.288 223.999-224 223.999zM288 96.001c0-17.674-14.327-32-32.001-32-17.672 0-32 14.326-32 32v160c0 17.673 14.327 31.999 32 31.999 17.674 0 32.001-14.326 32.001-31.999v-160zM255.999 320.002c-17.672 0-32 14.326-32 31.999 0 17.674 14.327 32 32 32 17.674 0 32.001-14.326 32.001-32 0-17.673-14.327-31.999-32.001-31.999z" />
<glyph unicode="&#xe640;" d="M447.999 432.001h-383.999c-35.346 0-64-28.654-64-64v-288c0-35.347 28.654-64.001 64-64.001h384c35.346 0 64 28.654 64 64.001v288c0 35.346-28.654 64-64.001 64zM447.999 176.002l-95.999 63.999-128-128-64 64.001-96-96.001v288h384v-191.999zM144 240.001c26.509 0 48 21.49 48 48 0 26.509-21.491 48.001-48 48.001s-48-21.492-48-48.001c-0.001-26.51 21.49-48 48-48z" />
<glyph unicode="&#xe641;" d="M255.999 320.001l-127.999-128c0 0-32-32-32-64v-64.001c0-35.345 0-63.999 32-63.999h256c31.999 0 31.999 32 31.999 63.999v64.001c0 32-31.999 64-31.999 64l-128.001 128zM352 64h-192v78.001l96 95.999 96-95.999v-78.001zM473.077 260.177l-190.901 190.902c-12.496 12.497-32.758 12.497-45.255 0-1.132-1.132-2.158-2.329-3.085-3.577-3.872-1.562-7.501-3.912-10.64-7.050l-183.647-181.646c-12.497-12.497-12.497-32.759 0-45.256s32.757-12.497 45.254 0l173.139 171.253 169.88-169.88c12.497-12.497 32.758-12.497 45.255 0s12.497 32.757 0 45.254z" />
<glyph unicode="&#xe642;" d="M255.999 448c-123.711 0-224-100.286-224-223.999s100.289-224.001 224-224.001c123.712 0 224 100.288 224 224.001s-100.288 223.999-224 223.999zM255.999 64.001c-17.672 0-32 14.326-32 32 0 17.673 14.327 31.999 32 31.999 17.674 0 32.001-14.326 32.001-31.999 0-17.674-14.327-32-32.001-32zM288 192.001c0-31.999-32.001-31.999-32.001-31.999s-32 0-32 31.999c0 64 64 64 64 95.999 0 0 0 32.002-32.001 32.002-32 0-32-32.002-32-32.002 0-31.999-64-31.999-64 0 0 0 0 96.001 96 96.001 96.002 0 96.002-96.001 96.002-96.001 0-48.166-64-63.999-64-95.999z" />
<glyph unicode="&#xe643;" d="M256 480c-128 0-256-102.4-256-256s128-256 256-256 256 102.4 256 256-128 256-256 256zM256 80.365c-71.813 55.535-143.626 123.296-143.626 166.604 0 111.068 125.673 107.58 143.626 33.535 35.906 92.557 143.626 59.021 143.626-33.535 0-37.024-71.813-111.069-143.626-166.604z" />
<glyph unicode="&#xe644;" d="M512 292.346c-2.489 179.747-219.538 193.893-256.12 58.726-36.323 135.075-253.112 119.52-255.88-59.447v-4.406c3.287-104.999 256.27-287.163 256.27-287.163s253.091 184.396 255.73 288.662v3.628zM255.999 84.225c-127.999 107.777-190.857 140.372-190.857 215.235 0 74.865 94.857 140.541 190.857-24.376 96.001 164.917 190.856 99.241 190.856 24.376 0-74.863-62.856-107.458-190.856-215.235z" />
<glyph unicode="&#xe645;" d="M480 320.001h-64.001v128c0 17.674-14.327 32-32 32h-351.999c-17.673 0-32.001-14.326-32.001-32v-351.999c0-17.673 14.328-32.001 32.001-32.001h96v-64c0-17.674 14.327-31.999 31.999-31.999h320.001c17.672 0 31.999 14.325 31.999 31.999v288c0 17.673-14.327 32-31.999 32zM63.999 128.002v287.999h288l0.001-192.001-64 64-96-96-32 32-96.001-95.998zM447.999 32.001h-255.999v32h191.999c17.673 0 32 14.328 32 32.001v159.998h32v-223.999zM144 384c-26.51 0-48-21.49-48-48s21.49-48 48-48 48 21.49 48 48-21.49 48-48 48z" />
<glyph unicode="&#xe646;" d="M160 480h-128c-17.673 0-32-14.327-32-32v-128c0-17.673 14.327-32 32-32s32 14.327 32 32v96h96c17.673 0 32 14.327 32 32s-14.327 32-32 32zM480 480h-128c-17.673 0-32-14.327-32-32s14.327-32 32-32h96v-96c0-17.673 14.327-32 32-32s32 14.327 32 32v128c0 17.673-14.327 32-32 32zM480 160c-17.673 0-32-14.327-32-32v-96h-96c-17.673 0-32-14.327-32-32s14.327-32 32-32h128c17.673 0 32 14.327 32 32v128c0 17.673-14.327 32-32 32zM160 32h-96v96c0 17.673-14.327 32-32 32-17.673 0-32-14.327-32-32v-128c0-17.673 14.327-32 32-32h128c17.673 0 32 14.327 32 32s-14.327 32-32 32z" />
<glyph unicode="&#xe647;" d="M447.999 368.001h-191.999l-64 64h-128c-35.346 0-64-28.654-64-64v-288c0-35.347 28.653-64.001 64-64.001h384c35.347 0 64 28.654 64 64.001v223.999c-0.001 35.348-28.654 64.001-64.001 64.001zM447.999 80.001h-383.999v288h96l64-64.001h224v-223.999z" />
<glyph unicode="&#xe648;" d="M336 192.002h-160c-8.837 0-16.001-7.164-16.001-16.001s7.164-15.999 16.001-15.999h160c8.837 0 16 7.162 16 15.999s-7.163 16.001-16 16.001zM288 480.002h-160c-35.346 0-64-28.654-64-64.001v-383.999c0-35.348 28.654-64.001 64-64.001h256c35.347 0 64 28.653 64 64.001v288l-160 160zM320 32c0 0-96.001 0.003-128 0.002-32-0.002-64-0.002-64 63.998 0 32 0 192 0 256s32 64 64 64 64 0.001 64 0.001 0-0.001 0-64.001 32-64 64-64 63.999 0 63.999 0 0.001-128 0.001-192-32-64-64-64zM336 128h-160c-8.837 0-16.001-7.162-16.001-15.998 0-8.837 7.164-16.001 16.001-16.001h160c8.837 0 16 7.164 16 16.001 0 8.836-7.163 15.998-16 15.998zM336 256.001h-160c-8.837 0-16.001-7.164-16.001-15.999 0-8.837 7.164-16.001 16.001-16.001h160c8.837 0 16 7.164 16 16.001 0 8.835-7.163 15.999-16 15.999z" />
<glyph unicode="&#xe649;" d="M342 320l105.999 0.002-159.999 159.998v-106c0-32 22-54 54-54zM64 416.001v-383.999c0-35.348 28.654-64.001 64-64.001h256c35.347 0 64 28.653 64 64.001v255.998h-128c-32 0-64 32-64 64v128l-128 0.002c-35.347 0-64-28.654-64-64.001zM176 224.001h160c8.837 0 16-7.164 16-16.001 0-8.836-7.163-15.998-16-15.998h-160c-8.837 0-16.001 7.162-16.001 15.998 0 8.837 7.164 16.001 16.001 16.001zM176 160.002h160c8.837 0 16-7.164 16-16.001s-7.163-16.001-16-16.001h-160c-8.837 0-16.001 7.164-16.001 16.001s7.164 16.001 16.001 16.001zM176 96.001h160c8.837 0 16-7.164 16-16.001 0-8.835-7.163-15.999-16-15.999h-160c-8.837 0-16.001 7.164-16.001 15.999 0 8.837 7.164 16.001 16.001 16.001z" />
<glyph unicode="&#xe64a;" d="M448 448h-160c-17.674 0-32-14.327-32-32s14.326-32 32-32h82.745l-141.255-141.255c-12.497-12.497-12.497-32.758 0-45.255s32.758-12.497 45.255 0l141.255 141.255v-82.745c0-17.673 14.327-32 32-32s32 14.327 32 32v160c0 17.673-14.327 32-32 32zM448 160c-17.673 0-32-14.327-32-32v-64h-320v320h64c17.673 0 32 14.327 32 32s-14.327 32-32 32c0 0-0.281 0-0.817 0-5.183 0-34.183 0.001-63.183 0.001-32 0-64-31.999-64-64.001 0-32 0-287.998 0-320 0-31.999 32-63.999 64-63.999 32 0 287.999 0 320 0 31.999 0 64 32 64 63.999 0 11.115 0 22.227 0 32 0 18.366 0 32 0 32 0 17.673-14.327 32-32 32z" />
<glyph unicode="&#xe64b;" d="M431.999 480.001h-352c-17.672 0-32-14.326-32-32v-96.001h64v64.001h288v-384h-287.999v64.001h-64v-96.001c0-17.674 14.327-31.999 32-31.999h352c17.674 0 32.001 14.325 32.001 31.999v448c-0.001 17.674-14.328 32-32.002 32zM48 224c0-17.672 14.327-32 32-32h117.88l-46.508-46.508c-12.497-12.497-12.497-32.759 0-45.256s32.758-12.497 45.255 0l101.137 101.137c12.497 12.497 12.497 32.759 0 45.256l-101.137 101.137c-12.497 12.497-32.758 12.497-45.255 0-12.497-12.496-12.497-32.758 0-45.255l46.508-46.509h-117.881c-17.672 0-31.999-14.328-31.999-32.002z" />
<glyph unicode="&#xe64c;" d="M159.998 128.005h64.002l-21.334 42.668-42.667 21.331-0.001-63.999zM437.332 320.005l42.667 42.667-32 53.332-53.333 32.001-42.666-42.665 53.333-32.004 31.999-53.331zM233.333 201.339l33.333-52.002 157.333 157.335-31.999 53.332-54.668 31.999-156-157.331 52.001-33.333zM416 224v-160h-320v320h160l64 64.001c0 0-192 0-224 0s-64-31.999-64-64.001c0-32 0-287.998 0-320 0-31.999 32-63.999 64-63.999 32 0 287.999 0 320 0 31.999 0 64 32 64 63.999 0 32.002 0 224.001 0 224.001l-64-64.001z" />
<glyph unicode="&#xe64d;" d="M432 191.75c0 0-48 0.25-80 0.25-80-96-112-96-192 0-30 0-80-0.25-80-0.25-26.51 0-48-21.49-48-48v-96c0-26.51 21.49-48 48-48h352c26.51 0 48 21.49 48 48v96c0 26.51-21.49 48-48 48zM400 63.75h-32c-8.837 0-16 7.163-16 16s7.163 16 16 16h32c8.837 0 16-7.163 16-16s-7.163-16-16-16zM232.874 164.485c12.497-12.496 32.757-12.496 45.254 0l101.137 101.138c12.497 12.497 12.497 32.759 0 45.255s-32.757 12.496-45.253 0l-46.512-46.511v151.884c0 17.672-14.326 31.999-31.999 31.999-17.673 0-32-14.327-32-31.999v-151.883l-46.511 46.51c-12.497 12.496-32.757 12.496-45.254 0-12.497-12.496-12.497-32.758 0-45.255l101.138-101.138z" />
<glyph unicode="&#xe64e;" d="M334 96h-14l-0.001 112.001c0 26.511-21.49 48-47.999 48-26.511 0-48-21.489-48-48v-112.001h-14c-50-1.25-50-17.25-18-49.25s32-32 48-48 48-16 64 0 32 32 48 48c32 32 32 48-18 49.25zM408.851 403.061c-6.649 57.236-57.259 76.941-118.718 76.941-59.021 0-108.040-18.173-117.724-70.308-6.052 0.354-12.347 0.488-18.81 0.488-47.127 0-85.333-7.073-85.333-55.272 0-7.758 0.995-15.278 2.853-22.438-41.254-13.522-71.119-53.062-71.119-99.744 0-57.839 45.846-104.727 102.4-104.727h89.6v96.001c0 35.345 28.653 62.748 64 62.748h32c35.346 0 64-27.403 64-62.748v-96.001h23.466c75.406 0 136.534 62.517 136.534 139.637 0 65.339-43.883 120.189-103.149 135.423z" />
<glyph unicode="&#xe64f;" d="M414.392 382.392c-87.478 87.479-229.307 87.479-316.784 0-87.478-87.477-87.478-229.305 0-316.783 87.477-87.477 229.306-87.477 316.784 0 87.476 87.478 87.476 229.306 0 316.783zM358.026 167.636c14.58-14.579 16.178-36.621 3.568-49.23-12.609-12.607-34.651-11.011-49.23 3.568l-56.364 56.365-56.365-56.365c-14.58-14.579-36.62-16.176-49.229-3.568-12.609 12.609-11.012 34.651 3.567 49.23l56.365 56.365-56.365 56.365c-14.579 14.58-16.176 36.621-3.567 49.229 12.609 12.609 34.65 11.013 49.229-3.566l56.365-56.366 56.365 56.365c14.579 14.579 36.621 16.176 49.23 3.566 12.609-12.607 11.012-34.648-3.568-49.229l-56.365-56.365 56.364-56.364z" />
<glyph unicode="&#xe650;" d="M305.936 224.001l99.873 99.873c13.789 13.79 13.789 36.147 0 49.936-13.791 13.791-36.147 13.791-49.937 0l-99.873-99.873-99.874 99.873c-13.789 13.791-36.146 13.791-49.936 0-13.789-13.788-13.789-36.146 0-49.936l99.873-99.873-99.873-99.873c-13.789-13.789-13.789-36.146 0-49.937 13.79-13.788 36.147-13.788 49.936 0l99.874 99.873 99.873-99.873c13.789-13.788 36.146-13.788 49.937 0 13.789 13.79 13.789 36.147 0 49.937l-99.873 99.873z" />
<glyph unicode="&#xe651;" d="M112 128h32c8.836 0 16 7.163 16 16s-7.164 16-16 16h-32c-8.836 0-16-7.163-16-16s7.164-16 16-16zM464 416h-416c-26.51 0-48-21.49-48-48v-288c0-26.51 21.49-48 48-48h416c26.51 0 48 21.49 48 48v288c0 26.51-21.49 48-48 48zM448 128c0-17.673-14.327-32-32-32h-320c-17.673 0-32 14.327-32 32v96h384v-96zM64 320c0 17.673 14.327 32 32 32h320c17.673 0 32-14.327 32-32h-384zM208 128h96c8.837 0 16 7.163 16 16s-7.163 16-16 16h-96c-8.836 0-16-7.163-16-16s7.164-16 16-16z" />
<glyph unicode="&#xe652;" d="M448 448h-384c-35.346 0-64-28.652-64-63.999v-223.999c0-35.347 28.654-64.001 64-64.001h127.999c0 0 64-63.999 96.001-96.001 31.999-31.999 64-31.999 95.999-31.999 0 31.999 0 128 0 128h64.001c35.346 0 64 28.654 64 64.001v223.999c0 35.347-28.654 63.999-64 63.999zM448 160.002h-128.001v-96.001l-96 96.001h-159.999v223.999h384v-223.999z" />
<glyph unicode="&#xe653;" d="M448 448h-384c-35.346 0-64-28.652-64-63.999v-223.999c0-35.347 28.654-64.001 64-64.001h160c0 0 73.47-73.47 105.601-105.601 20.8-20.8 33.115-22.399 54.398-22.399 0 13.666 0 128 0 128h64.001c35.346 0 64 28.654 64 64.001v223.999c0 35.347-28.654 63.999-64 63.999z" />
<glyph unicode="&#xe654;" d="M256 480c-141.385 0-256-114.615-256-256s114.615-256 256-256 256 114.615 256 256-114.615 256-256 256zM256 32c-106.039 0-192 85.961-192 192s85.961 192 192 192c106.039 0 192-85.961 192-192s-85.961-192-192-192zM356.392 307.882c-12.496 12.497-32.758 12.497-45.255 0l-76.339-76.339-33.935 33.084c-12.497 12.497-32.758 12.497-45.255 0l-22.628-22.627c-12.497-12.497-12.497-32.758 0-45.255l79.765-77.765c12.497-12.496 32.758-12.496 45.255 0l121.020 121.020c12.496 12.497 12.496 32.758 0 45.255l-22.628 22.627z" />
<glyph unicode="&#xe655;" d="M453.808 357.811c-13.789 13.79-36.146 13.79-49.937 0l-192.658-192.659-96.658 96.657c-13.789 13.79-36.147 13.79-49.937 0-13.789-13.788-13.789-36.146 0-49.937l120.040-120.040c0.492-0.558 0.997-1.107 1.53-1.641 6.909-6.908 15.969-10.354 25.024-10.34 9.055-0.014 18.115 3.432 25.023 10.34 0.531 0.531 1.034 1.079 1.524 1.635l216.047 216.047c13.792 13.791 13.792 36.149 0.002 49.938z" />
<glyph unicode="&#xe656;" d="M214 209.321c0 2.303 0.456 4.323 1.263 6.078 0.847 2.343 2.191 4.547 4.069 6.426l161.912 161.435c-87.565 86.344-228.538 85.98-315.636-1.119-87.477-87.478-87.477-229.306 0-316.783 87.478-87.478 229.306-87.478 316.784 0 35.591 35.591 56.688 80.178 63.316 126.439h-214.185c-9.677 0.001-17.523 7.847-17.523 17.524zM389.995 223.845c43.481-0.051 88.334-0.095 114.005-0.095 0 65.652-19.046 128.128-56.843 175.907-15.54-15.699-29.739-30.025-42.732-43.123-0.049 0.067-0.096 0.135-0.146 0.202l-133.284-132.891h119z" />
<glyph unicode="&#xe657;" d="M80 112c-26.51 0-48-21.49-48-48v-32c0-26.51 21.49-48 48-48s48 21.49 48 48v32c0 26.51-21.49 48-48 48zM480.25 464h-96c-17.673 0-32-14.327-32-32s14.327-32 32-32h18.745l-90.17-90.17-132.645 55.741c-12.244 7.107-28.191 5.423-38.675-5.061l-131.765-131.765c-12.497-12.497-12.497-32.758 0-45.255s32.758-12.497 45.255 0l116.366 116.366 136.467-57.347c12.394-5.22 26.217-2.037 35.143 6.957 0.008 0.008 0.017 0.016 0.024 0.023l105.255 105.256v-18.745c0-17.673 14.327-32 32-32 16.338 0 29.808 12.248 31.75 28.061v103.878c-1.942 15.813-15.412 28.061-31.75 28.061zM336 176c-26.51 0-48-21.49-48-48v-96c0-26.51 21.49-48 48-48s48 21.49 48 48v96c0 26.51-21.49 48-48 48zM464 240c-26.51 0-48-21.49-48-48v-160c0-26.51 21.49-48 48-48s48 21.49 48 48v160c0 26.51-21.49 48-48 48zM208 208c-26.51 0-48-21.49-48-48v-128c0-26.51 21.49-48 48-48s48 21.49 48 48v128c0 26.51-21.49 48-48 48z" />
<glyph unicode="&#xe658;" d="M239.999 206.001c8.837 0 16.001 7.164 16.001 15.999v64.001c0 8.837-7.164 15.999-16.001 15.999-8.836 0-16-7.162-16-15.999v-64.001c0.001-8.835 7.164-15.999 16-15.999zM304 206.001c8.836 0 15.999 7.164 15.999 15.999v64.001c0 8.837-7.163 15.999-15.999 15.999-8.838 0-16-7.162-16-15.999v-64.001c0-8.835 7.162-15.999 16-15.999zM480 480.002h-32.001c-5.74 0-11.123-1.52-15.781-4.167-13.457-1.793-24.796-12.085-27.278-26.167l-13.080-65.667h-327.86c-32 0-64 0-64-63.999 0-32.002 95.999-192.002 128-192.002 26.944 0 168.739 0 212.873 0l-12.747-63.999h-232.127c-17.672 0-32-14.328-32-31.999 0-17.674 14.327-32.002 32-32.002h32c0-17.672 14.327-32 32-32s32 14.328 32 32h64c0-17.672 14.326-32 32-32 17.673 0 31.999 14.328 31.999 32h12c7.351 0 14.117 2.484 19.521 6.651 9.001 2.347 15.592 8.64 17.539 19.682l87.825 389.667h23.117c17.673 0 32 14.328 32 32 0 17.674-14.327 32.002-32 32.002zM354 192.001h-194c-32 0-64 64-96 128.001h316l-26-128.001zM175.999 206.001c8.837 0 16.001 7.164 16.001 15.999v64.001c0 8.837-7.164 15.999-16.001 15.999-8.836 0-16-7.162-16-15.999v-64.001c0.001-8.835 7.164-15.999 16-15.999z" />
<glyph unicode="&#xe659;" d="M255.999 288.002c-17.672 0-32-14.328-32-32.002 0-17.672 14.327-32 32-32 17.674 0 32.001 14.328 32.001 32 0 17.674-14.327 32.002-32.001 32.002zM479.999 448.001h-96c0 17.674-9.551 32-21.333 32h-21.333c-11.782 0-21.334-14.326-21.334-32h-127.999c0 17.674-9.552 32-21.333 32h-21.334c-11.782 0-21.333-14.326-21.333-32h-96.001c-17.672 0-32-14.327-32-31.999v-384.001c0-17.674 14.327-31.999 32-31.999h448c17.674 0 32.001 14.325 32.001 31.999v384.001c0 17.672-14.327 31.999-32.001 31.999zM448 64.001h-384v319.999h64c0-17.671 9.551-31.999 21.333-31.999h21.334c11.781 0 21.333 14.328 21.333 31.999h127.999c0-17.671 9.552-31.999 21.334-31.999h21.333c11.782 0 21.333 14.328 21.333 31.999h64.001v-319.999zM160 288.002c-17.673 0-32-14.328-32-32.002 0-17.672 14.326-32 32-32s32 14.328 32 32c0 17.674-14.327 32.002-32 32.002zM255.999 192.001c-17.672 0-32-14.326-32-32 0-17.673 14.327-31.999 32-31.999 17.674 0 32.001 14.326 32.001 31.999 0 17.674-14.327 32-32.001 32zM352 288.002c-17.674 0-32.001-14.328-32.001-32.002 0-17.672 14.327-32 32.001-32 17.672 0 31.999 14.328 31.999 32 0 17.674-14.327 32.002-31.999 32.002zM352 192.001c-17.674 0-32.001-14.326-32.001-32 0-17.673 14.327-31.999 32.001-31.999 17.672 0 31.999 14.326 31.999 31.999 0 17.674-14.327 32-31.999 32zM160 192.001c-17.673 0-32-14.326-32-32 0-17.673 14.326-31.999 32-31.999s32 14.326 32 31.999c0 17.674-14.327 32-32 32z" />
<glyph unicode="&#xe65a;" d="M400 464h-288c-26.51 0-48-21.49-48-48v-432l192 128 192-128v432c0 26.51-21.49 48-48 48z" />
<glyph unicode="&#xe65b;" d="M448 64c-64 112-128 224-128 224v128c17.673 0 32 14.327 32 32s-14.327 32-32 32h-128c-17.673 0-32-14.327-32-32s14.327-32 32-32v-128c0 0-64-112-128-224-35.501-62.126 0-96 64-96h256c64 0 99.501 33.874 64 96zM320 96h-128c-64 0 0 96 32 160v128c0 17.673 14.327 32 32 32s32-14.327 32-32v-128c32-64 96-160 32-160z" />
<glyph unicode="&#xe65c;" d="M464 384c0 35.347-28.654 64-64 64h-224c-35.346 0-64-28.653-64-64v-225.604c-5.17 1.050-10.52 1.604-16 1.604-44.183 0-80-35.817-80-80s35.817-80 80-80 80 35.817 80 80c0 3.306-0.224 6.557-0.613 9.757 0.399 2.020 0.613 4.106 0.613 6.243v224h224v-161.604c-5.17 1.050-10.521 1.604-16 1.604-44.183 0-80-35.817-80-80s35.817-80 80-80 80 35.817 80 80c0 3.306-0.224 6.557-0.613 9.757 0.399 2.020 0.613 4.106 0.613 6.243v288z" />
<glyph unicode="&#xe65d;" d="M279.715 437.4c-71.298-71.291-214.008-213.754-237.774-237.518-28.224-28.221-39.723-56.407-41.941-82.093v-19.195c4.324-51.203 41.549-88.429 41.549-88.429s94.67-94.661 189.734 0.392c47.98 47.262 0.402 94.743-47.336 47.33-47.531-47.525-94.867-0.194-94.867-0.194s-47.335 47.331 0.196 94.858c23.766 23.762 214.008 213.755 237.773 237.517 47.532 47.527 94.946 0.116 94.946 0.116s47.578-47.481 0-94.961c-23.788-23.741-102.589-102.381-126.379-126.122-23.788-23.738-47.578 0-23.788 23.741 13.707 13.68 55.012 54.899 78.801 78.64 23.789 23.741-23.789 71.221-47.577 47.479-23.79-23.738-47.579-47.479-71.368-71.22-71.367-71.221-11.894-130.571-11.894-130.571s59.472-59.352 130.839 11.871c23.789 23.738 71.366 71.221 118.944 118.7 95.156 94.961 0 189.922 0 189.922s-94.796 94.79-189.858-0.263z" />
<glyph unicode="&#xe65e;" d="M451.52 284.16h-91.32l45.66 79.085c12.459 21.581 5.065 49.176-16.516 61.636l-26.050 15.039c-21.58 12.46-49.176 5.066-61.635-16.515l-45.659-79.085-45.66 79.085c-12.46 21.581-40.054 28.975-61.635 16.515l-26.050-15.039c-21.581-12.46-28.975-40.055-16.515-61.636l45.66-79.085h-91.32c-24.919 0-45.12-20.201-45.12-45.12v-30.080c0-24.919 20.201-45.12 45.12-45.12h91.319l-45.66-79.085c-12.459-21.581-5.065-49.176 16.515-61.635l26.050-15.040c21.581-12.46 49.175-5.066 61.635 16.515l45.661 79.086 45.66-79.086c12.459-21.581 40.055-28.975 61.635-16.515l26.050 15.040c21.581 12.459 28.975 40.054 16.516 61.635l-45.661 79.085h91.319c24.92 0 45.12 20.201 45.12 45.12v30.080c0.001 24.919-20.2 45.12-45.119 45.12z" />
<glyph unicode="&#xe65f;" d="M256 448.001c-123.712 0-224-100.288-224-224.001 0-123.711 100.288-223.999 224-223.999 123.711 0 224 100.288 224 223.999 0 123.713-100.289 224.001-224 224.001zM367.999 191.713h-79.712v-79.712c0-20.619-14.455-37.333-32.287-37.333-17.833 0-32.289 16.714-32.289 37.333v79.712h-79.711c-20.619 0-37.333 14.455-37.333 32.287 0 17.834 16.715 32.29 37.333 32.29h79.712v79.712c0 20.618 14.456 37.332 32.289 37.332 17.832 0 32.287-16.714 32.287-37.332v-79.712h79.712c20.619 0 37.334-14.456 37.334-32.29-0.001-17.832-16.716-32.287-37.335-32.287z" />
<glyph unicode="&#xe660;" d="M547.712 331.424q6.576-18.288-42.864-84-6.864-9.136-18.576-24.288-22.288-28.576-25.712-37.424-4.864-11.712 4-23.136 4.864-6 23.136-23.424h0.288l1.136-1.136q40.288-37.424 54.576-63.136 0.864-1.424 1.856-3.568t2-7.568-0.144-9.712-7.136-7.856-16.864-3.568l-73.136-1.136q-6.864-1.424-16 1.424t-14.864 6.288l-5.712 3.424q-8.576 6-20 18.288t-19.568 22.144-17.424 16.576-16.144 4.432q-0.864-0.288-2.288-1.008t-4.864-4.144-6.144-8.432-4.864-14.864-1.856-22.144q0-4.288-1.008-7.856t-2.144-5.28l-1.136-1.424q-5.136-5.424-15.136-6.288h-32.864q-20.288-1.136-41.712 4.72t-37.568 15.136-29.424 18.864-20.144 16.432l-7.136 6.864q-2.864 2.864-7.856 8.576t-20.432 26-30.288 43.136-35.008 60.288-37.28 77.712q-1.712 4.576-1.712 7.712t0.864 4.576l1.136 1.712q4.288 5.424 16.288 5.424l78.288 0.576q3.424-0.576 6.576-1.856t4.576-2.432l1.424-0.864q4.576-3.136 6.864-9.136 5.712-14.288 13.136-29.568t11.712-23.28l4.576-8.288q8.288-17.136 16-29.712t13.856-19.568 11.856-11.008 9.712-4 7.712 1.424q0.576 0.288 1.424 1.424t3.424 6.288 3.856 13.424 2.72 23.136 0 35.712q-0.576 11.424-2.576 20.864t-4 13.136l-1.712 3.424q-7.136 9.712-24.288 12.288-3.712 0.576 1.424 6.864 4.864 5.424 10.864 8.576 15.136 7.424 68.288 6.864 23.424-0.288 38.576-3.712 5.712-1.424 9.568-3.856t5.856-6.864 3.008-9.136 1.008-13.008-0.288-15.712-0.72-20.144-0.432-23.568q0-3.136-0.288-12t-0.144-13.712 1.008-11.568 3.28-11.136 6.432-7.008q2.288-0.576 4.864-1.136t7.424 3.136 10.864 9.856 14.864 19.136 19.424 30.72q17.136 29.712 30.576 64.288 1.136 2.864 2.864 5.008t3.136 3.008l1.136 0.864 1.424 0.72t3.712 0.864 5.712 0.144l82.288 0.576q11.136 1.424 18.288-0.72t8.864-4.72z" horiz-adv-x="544" />
<glyph unicode="&#xe661;" d="M0 325.808l20.8-27.264c0 0 42.88 33.808 57.184 16.896 14.288-16.896 68.864-220.976 87.088-258.624 15.904-33.008 59.76-76.656 107.856-45.488 48.064 31.168 207.92 167.648 236.528 328.8 28.592 161.12-192.368 127.36-215.76-13.008 58.496 35.12 89.712-14.272 59.792-70.192-29.872-55.856-57.184-92.304-71.472-92.304-14.272 0-25.248 37.392-41.6 102.72-16.896 67.552-16.8 189.232-87.056 175.44-66.256-13.008-153.344-116.992-153.344-116.992z" />
<glyph unicode="&#xe662;" d="M512 382.784c-18.832-8.352-39.088-14-60.336-16.544 21.68 13.008 38.336 33.584 46.192 58.112-20.304-12.032-42.784-20.784-66.704-25.488-19.168 20.416-46.464 33.168-76.672 33.168-58.016 0-105.040-47.024-105.040-105.040 0-8.24 0.928-16.256 2.72-23.936-87.296 4.384-164.704 46.208-216.512 109.76-9.040-15.52-14.224-33.552-14.224-52.816 0-36.448 18.544-68.592 46.736-87.44-17.216 0.544-33.408 5.264-47.584 13.136-0.016-0.432-0.016-0.88-0.016-1.328 0-50.896 36.208-93.344 84.256-102.992-8.816-2.4-18.096-3.68-27.68-3.68-6.768 0-13.344 0.656-19.76 1.888 13.36-41.728 52.16-72.096 98.128-72.944-35.952-28.176-81.248-44.96-130.464-44.96-8.48 0-16.832 0.496-25.056 1.472 46.48-29.808 101.696-47.2 161.024-47.2 193.216 0 298.864 160.064 298.864 298.88 0 4.56-0.096 9.088-0.304 13.584 20.528 14.816 38.336 33.312 52.416 54.368z" />
<glyph unicode="&#xe663;" d="M288.016 256v-117.088c0-29.712-0.384-46.832 2.768-55.248 3.12-8.384 10.96-17.072 19.488-22.096 11.344-6.8 24.272-10.192 38.848-10.192 25.92 0 41.232 3.424 66.864 20.272v-76.976c-21.856-10.272-40.928-16.304-58.656-20.464-17.744-4.128-36.928-6.208-57.536-6.208-23.408 0-37.232 2.944-55.2 8.832-17.984 5.936-33.328 14.4-46.016 25.264-12.72 10.96-21.504 22.608-26.432 34.912-4.912 12.32-7.36 30.208-7.36 53.616v179.552h-68.72v72.496c20.096 6.528 42.576 15.888 56.896 28.080 14.384 12.224 25.888 26.848 34.56 43.968 8.688 17.072 14.672 38.864 17.936 65.264h82.544v-128h127.984v-96h-127.984z" />
<glyph unicode="&#xe664;" d="M282.928 273.664l34.912-16.864 52.704 16.864v30.592c0 63.024-51.376 114.304-114.56 114.304-63.152 0-114.528-51.28-114.528-114.304v-160.512c0-14.8-12.080-26.848-26.912-26.848s-26.912 12.064-26.912 26.848v67.2h-87.648v-67.2c0-63.024 51.376-114.304 114.56-114.304s114.56 51.28 114.56 114.304v160.512c0 14.8 12.080 26.848 26.912 26.848 14.848 0 26.928-12.064 26.928-26.848v-30.592zM424.368 210.944v-67.2c0-14.8-12.080-26.848-26.912-26.848-14.848 0-26.928 12.064-26.928 26.848v68.56l-52.704-16.864-34.912 16.864v-68.56c0-63.024 51.376-114.304 114.56-114.304 63.152 0 114.528 51.28 114.528 114.304v67.2h-87.632z" />
<glyph unicode="&#xe665;" d="M256 469.76c-135.728 0-245.76-110.032-245.76-245.76 0-62.048 22.992-118.736 60.928-161.952 38.448 38.448 91.104 60.032 151.552 58.080 77.104-2.512 137.984-39.008 172.88-98.4 64.128 44.336 106.16 118.368 106.16 202.272 0 135.728-110.032 245.76-245.76 245.76zM376.144 136.4c-4.32-7.168-13.6-9.376-20.736-5.040-56.928 34.768-128.512 42.624-212.832 23.376-8.096-1.872-16.224 3.2-18.048 11.36-1.872 8.064 3.168 16.208 11.312 18.048 92.288 21.088 171.44 11.984 235.296-26.976 7.12-4.352 9.392-13.648 5.024-20.768zM405.808 206.112c-5.456-8.912-17.104-11.68-25.952-6.192-65.12 40.016-164.4 51.616-241.44 28.24-10.016-3.024-20.56 2.64-23.552 12.576-3.024 10.016 2.608 20.56 12.576 23.552 87.984 26.752 197.376 13.792 272.176-32.16 8.88-5.536 11.68-17.104 6.192-26.016zM408.352 278.32c-78.080 46.416-206.88 50.64-281.424 28.032-11.984-3.664-24.624 3.104-28.256 15.072-3.616 11.984 3.152 24.672 15.072 28.256 85.6 25.984 227.84 20.96 317.728-32.416 10.784-6.4 14.336-20.304 7.968-31.072-6.432-10.72-20.304-14.256-31.072-7.888zM221.152 46.64c-34.592 1.104-63.36-12.368-84.384-37.584 35.296-19.632 75.952-30.816 119.216-30.816 20.864 0 41.12 2.608 60.464 7.504-18.528 38.064-50.864 59.472-95.312 60.896z" />
<glyph unicode="&#xe666;" d="M445.984 222.896c-9.040 0-17.68-1.76-25.536-4.928-5.248 57.184-55.152 102.032-116 102.032-14.896 0-29.344-2.816-42.16-7.584-4.976-1.856-6.288-3.76-6.288-7.456v-201.36c0-3.888 3.12-7.12 7.056-7.504 0.176-0.016 181.76-0.112 182.944-0.112 36.448 0 66 28.416 66 63.44s-29.568 63.456-66.016 63.456zM200 96h16l8 112.112-8 111.888h-16l-8-111.888zM152 96h-16l-8 81.376 8 78.624h16l8-80zM72 96h16l8 64-8 64h-16l-8-64zM8 128h16l8 32-8 32h-16l-8-32z" />
<glyph unicode="&#xe667;" d="M487.648 191.024c1.408 10.4 2.208 20.976 2.208 31.728 0 129.152-105.264 233.872-235.104 233.872-12.896 0-25.552-1.056-37.872-3.072-22.080 14.384-48.336 22.768-76.608 22.768-77.52 0-140.288-62.8-140.288-140.304 0-28.192 8.304-54.4 22.592-76.384-1.92-12.016-2.912-24.32-2.912-36.864 0-129.168 105.216-233.888 235.088-233.888 14.656 0 28.928 1.424 42.8 3.936 21.552-13.376 46.928-21.152 74.144-21.152 77.504 0 140.288 62.816 140.288 140.32 0 29.296-8.96 56.528-24.352 79.040zM276.736 50.4c-74.704-3.888-109.664 12.64-141.696 42.688-35.76 33.568-21.392 71.856 7.744 73.808 29.12 1.952 46.608-33.008 62.144-42.736 15.52-9.68 74.592-31.76 105.792 3.904 33.968 38.832-22.592 58.928-64.064 65.008-59.2 8.768-133.952 40.8-128.128 103.904 5.824 63.072 53.584 95.408 103.856 99.968 64.080 5.824 105.792-9.712 138.784-37.856 38.144-32.528 17.504-68.896-6.8-71.824-24.208-2.912-51.408 53.504-104.784 54.352-55.024 0.864-92.224-57.264-24.288-73.792 67.968-16.512 140.752-23.28 166.96-85.424 26.224-62.144-40.752-128.128-115.52-132.016z" />
<glyph unicode="&#xe668;" d="M128 160c0 17.68 14.32 32 32 32s32-14.32 32-32c0-17.68-14.32-32-32-32-17.68 0-32 14.32-32 32zM320 160c0 17.68 14.32 32 32 32s32-14.32 32-32c0-17.68-14.32-32-32-32-17.68 0-32 14.32-32 32zM321.552 91.616c8.24 6.496 20.192 5.072 26.688-3.168s5.072-20.192-3.168-26.688c-22.944-18.080-57.904-29.76-89.072-29.76-31.168 0-66.128 11.68-89.072 29.76-8.24 6.496-9.664 18.448-3.168 26.688 6.496 8.24 18.448 9.664 26.688 3.168 13.216-10.416 39.36-21.616 65.552-21.616 26.192 0 52.336 11.2 65.552 21.616zM512 224c0 35.344-28.656 64-64 64-24.064 0-44.992-13.28-55.92-32.912-32.896 18-72.976 29.616-116.64 32.304l38.192 85.76 73.104-21.104c6.576-18.672 24.352-32.064 45.28-32.064 26.512 0 48 21.488 48 48s-21.488 48-48 48c-18.272 0-34.176-10.224-42.272-25.264l-81.456 23.52c-9.12 2.624-18.768-1.856-22.624-10.528l-51.888-116.512c-42.576-2.992-81.632-14.512-113.824-32.112-10.928 19.632-31.888 32.896-55.936 32.896-35.344 0-64-28.656-64-64 0-26.16 15.696-48.624 38.192-58.544-4.032-12.016-6.192-24.56-6.192-37.456 0-88.368 100.288-160 224-160 123.712 0 224 71.632 224 160 0 12.896-2.144 25.424-6.192 37.44 22.48 9.92 38.192 32.4 38.192 58.56zM432 386c9.936 0 18-8.064 18-18s-8.064-18-18-18-18 8.064-18 18 8.064 18 18 18zM32 224c0 17.648 14.352 32 32 32 12.752 0 23.792-7.504 28.928-18.32-16.72-12.688-30.576-27.312-40.832-43.376-11.76 4.736-20.096 16.256-20.096 29.696zM256 6c-102.72 0-186 54.624-186 122s83.28 122 186 122c102.72 0 186-54.624 186-122s-83.28-122-186-122zM459.904 194.304c-10.256 16.048-24.112 30.688-40.832 43.376 5.136 10.816 16.176 18.32 28.928 18.32 17.648 0 32-14.352 32-32 0-13.44-8.32-24.96-20.096-29.696z" />
<glyph unicode="&#xe669;" d="M256 480c-141.392 0-256-114.608-256-256s114.608-256 256-256c141.392 0 256 114.608 256 256s-114.608 256-256 256zM280.816 137.936c-23.264 1.808-33.024 13.328-51.248 24.4-10.032-52.592-22.288-103.008-58.576-129.344-11.2 79.488 16.448 139.184 29.28 202.56-21.888 36.848 2.64 111.024 48.816 92.736 56.816-22.48-49.2-137.008 21.968-151.312 74.304-14.928 104.64 128.928 58.576 175.712-66.576 67.552-193.792 1.536-178.16-95.184 3.808-23.648 28.24-30.816 9.76-63.456-42.608 9.44-55.328 43.056-53.696 87.856 2.64 73.344 65.888 124.688 129.344 131.776 80.24 8.976 155.552-29.456 165.952-104.944 11.712-85.2-36.224-177.472-122.032-170.832z" />
<glyph unicode="&#xe66a;" d="M352 282.864l-182.224 182.224c26.944 9.632 55.968 14.896 86.224 14.896 33.952 0 66.352-6.624 96-18.624v-178.496zM384 128v317.744c76.512-44.272 128-126.992 128-221.744 0-33.952-6.624-66.352-18.624-96h-109.376zM160 96h317.744c-44.272-76.512-126.992-128-221.744-128-33.952 0-66.352 6.624-96 18.624v109.376zM213.136 368l-205.648-205.648c-4.88 19.744-7.488 40.384-7.488 61.648 0 96.688 53.616 180.848 132.72 224.4l80.4-80.4zM128 229.136v-226.88c-47.296 27.36-85.024 69.424-106.944 119.936l106.944 106.944z" />
<glyph unicode="&#xe66b;" d="M426 480h-340c-47.296 0-86-38.704-86-86v-340c0-47.296 38.704-86 86-86h340c47.296 0 86 38.704 86 86v340c0 47.296-38.704 86-86 86zM192 64h-64v224h64v-224zM160 320c-17.68 0-32 14.32-32 32s14.32 32 32 32 32-14.32 32-32-14.32-32-32-32zM416 64h-64v128c0 17.68-14.32 32-32 32s-32-14.32-32-32v-128h-64v224h64v-39.728c13.2 18.128 33.376 39.728 56 39.728 39.76 0 72-35.824 72-80v-144z" />
<glyph unicode="&#xe66c;" d="M50.944 336.928c0-38.224 12.768-65.84 37.936-82.048 20.608-13.28 44.544-15.28 56.992-15.28 3.024 0 5.424 0.128 7.12 0.224 0 0-3.936-25.68 15.104-51.104l-0.864 0.032c-32.992 0-140.64-6.912-140.64-95.408 0-90.032 98.864-94.592 118.688-94.592 1.568 0 2.464 0.032 2.464 0.032 0.224 0 1.632-0.048 4.048-0.048 12.72 0 45.616 1.584 76.192 16.464 39.632 19.232 59.744 52.704 59.744 99.456 0 45.184-30.624 72.064-52.992 91.728-13.648 11.984-25.44 22.32-25.44 32.384 0 10.24 8.608 17.952 19.504 27.696 17.616 15.776 34.256 38.224 34.256 80.672 0 37.328-4.832 62.368-34.656 78.24 3.12 1.584 14.112 2.736 19.552 3.504 16.16 2.208 39.776 4.704 39.776 17.888v2.528h-117.712c-1.184-0.032-119.040-4.4-119.040-112.352zM240.976 106.192c2.256-36-28.544-62.56-74.784-65.92-46.944-3.456-85.632 17.696-87.888 53.68-1.072 17.28 6.496 34.208 21.376 47.696 15.104 13.648 35.792 22.064 58.336 23.76 2.656 0.16 5.296 0.288 7.936 0.288 43.44 0 72.88-25.552 75.008-59.488zM210.224 361.568c11.552-40.624-5.888-83.104-33.664-90.928-3.2-0.896-6.496-1.36-9.824-1.36-25.472 0-50.688 25.76-60.032 61.232-5.216 19.936-4.816 37.344 1.184 54.112 5.888 16.464 16.464 27.616 29.776 31.36 3.2 0.928 6.528 1.36 9.856 1.36 30.72 0 50.48-12.752 62.72-55.776zM408.608 273.104v76.8h-48.64v-76.8h-76.8v-48.64h76.8v-76.8h48.64v76.8h76.8v48.64h-76.8z" />
<glyph unicode="&#xe66d;" d="M256 480c-141.392 0-256-114.608-256-256s114.608-256 256-256 256 114.608 256 256-114.608 256-256 256zM408.032 71.968c-19.76-19.76-42.752-35.264-68.352-46.096-6.496-2.752-13.104-5.168-19.808-7.248v38.368c0 20.16-6.912 35.008-20.752 44.496 8.672 0.832 16.624 2 23.872 3.504s14.912 3.664 23.008 6.496 15.328 6.208 21.744 10.128 12.576 9.008 18.496 15.248 10.88 13.328 14.88 21.248 7.168 17.424 9.504 28.496 3.504 23.296 3.504 36.624c0 25.84-8.416 47.84-25.248 66 7.664 20 6.832 41.744-2.496 65.248l-6.256 0.752c-4.336 0.496-12.128-1.328-23.376-5.504s-23.872-11.008-37.872-20.496c-19.84 5.504-40.416 8.256-61.744 8.256-21.504 0-42-2.752-61.504-8.256-8.832 6-17.2 10.96-25.12 14.88-7.92 3.92-14.256 6.576-19.008 8s-9.168 2.288-13.248 2.624-6.704 0.416-7.872 0.256-2-0.336-2.496-0.496c-9.328-23.664-10.16-45.424-2.496-65.248-16.832-18.16-25.248-40.16-25.248-66 0-13.328 1.168-25.536 3.504-36.624s5.504-20.576 9.504-28.496 8.96-15.008 14.88-21.248 12.080-11.328 18.496-15.248 13.664-7.296 21.744-10.128 15.744-5.008 23.008-6.496 15.2-2.672 23.872-3.504c-13.664-9.328-20.496-24.16-20.496-44.496v-39.12c-7.552 2.24-14.992 4.896-22.304 8-25.6 10.832-48.592 26.336-68.352 46.096-19.76 19.76-35.264 42.752-46.096 68.352-11.2 26.48-16.88 54.624-16.88 83.68s5.68 57.2 16.88 83.68c10.832 25.6 26.336 48.592 46.096 68.352s42.752 35.264 68.352 46.096c26.48 11.2 54.64 16.88 83.68 16.88s57.2-5.68 83.68-16.88c25.6-10.832 48.592-26.336 68.352-46.096 19.76-19.76 35.264-42.752 46.096-68.352 11.2-26.48 16.88-54.64 16.88-83.68s-5.68-57.2-16.88-83.68c-10.832-25.6-26.336-48.592-46.096-68.352z" />
<glyph unicode="&#xe66e;" d="M192 32h-192l224 448 224-448h-192v64h64v32h-64v64h-64zM192 32h64v-64h-64z" />
<glyph unicode="&#xe66f;" d="M0 208c0 61.856 50.144 112 112 112s112-50.144 112-112c0-61.856-50.144-112-112-112-61.856 0-112 50.144-112 112zM288 208c0 61.856 50.144 112 112 112s112-50.144 112-112c0-61.856-50.144-112-112-112-61.856 0-112 50.144-112 112z" />
<glyph unicode="&#xe670;" d="M68.144 104.528c-37.6 0-68.144-30.672-68.144-68.032 0-37.584 30.544-67.904 68.144-67.904 37.728 0 68.24 30.32 68.24 67.904 0 37.376-30.512 68.032-68.24 68.032zM0.080 306.032v-98.128c63.888 0 123.984-24.992 169.232-70.256 45.2-45.152 70.144-105.52 70.144-169.648h98.56c0 186.416-151.648 338.032-337.936 338.032zM0.192 480v-98.176c227.888 0 413.376-185.664 413.376-413.824h98.432c0 282.24-229.632 512-511.808 512z" />
<glyph unicode="&#xe671;" d="M287.936-32h-95.936v256h-64v88.224l64 0.032-0.112 51.968c0 71.968 19.52 115.776 104.304 115.776h70.592v-88.24h-44.112c-33.024 0-34.608-12.336-34.608-35.344l-0.128-44.16h79.344l-9.344-88.224-69.92-0.032-0.064-256z" />
<glyph unicode="&#xe672;" d="M443.872 369.712c0 29.44-44.336 32.72-44.336 32.72l-104.16 6.56c0 0-2.224 28.368-23.296 38.192-21.040 9.808-44.192 6.832-60.8 6.656s-20.576-21.408-20.576-41.424 0.384-43.056 0.384-57.6c0-26.016-11.44-37.088-40.096-37.088h-59.056c-16.512 1.072-29.392-1.632-29.392-15.008 0-13.344 19.456-127.28 46.128-153.568 15.488-15.264 110.176-25.952 130.128-25.952s13.312 58.912 18.848 58.912 11.648-33.28 43.056-41.056c31.408-7.84 73.344-6.368 75.568-28.72 2.896-29.488 5.536-67.664-13.872-70.368l-43.904-1.744c-30.112 2.176-22.048 35.040-8.752 35.040s19.936 0.544 19.936 0.544l1.664 36c0 0-68.944 8.144-71.888-38.368-2.656-42.496 4.64-62.544 9.984-66.896 5.376-4.4 14.64-12.896 99.072-12.896 118.96 0 75.36 346.704 75.36 376.112zM395.264 215.776c-4.656-4.96-21.552 8.224-37.68 8.224-16.16 0-33.584-8.544-37.68-2.944-4.064 5.632 3.76 50.992 34.176 50.992s45.872-51.28 41.184-56.272zM148.56 373.344c0 5.808 1.504 76.384 1.504 76.384l-89.76-88.032c0 0 62 0 74.16 0 12.208 0 14.080 5.808 14.080 11.648z" />
<glyph unicode="&#xe673;" d="M256-32c-141.152 0-256 114.848-256 256s114.848 256 256 256c141.168 0 256-114.848 256-256s-114.832-256-256-256zM471.904 188.96c-7.488 2.368-67.68 20.32-136.208 9.344 28.608-78.592 40.24-142.608 42.48-155.904 49.056 33.168 83.984 85.712 93.728 146.56zM341.408 22.384c-3.248 19.184-15.952 86.048-46.656 165.824-0.48-0.16-0.96-0.32-1.44-0.48-123.328-42.976-167.616-128.512-171.536-136.544 37.072-28.912 83.664-46.16 134.224-46.16 30.288 0 59.152 6.192 85.408 17.376zM93.552 77.456c4.96 8.48 64.96 107.84 177.744 144.304 2.848 0.928 5.728 1.792 8.624 2.592-5.488 12.416-11.472 24.864-17.728 37.104-109.2-32.688-215.168-31.312-224.736-31.12-0.064-2.224-0.112-4.448-0.112-6.688 0-56.16 21.296-107.44 56.208-146.208zM41.952 268.448c9.776-0.128 99.872-0.528 202.144 26.64-36.224 64.4-75.312 118.56-81.072 126.464-61.168-28.848-106.896-85.248-121.072-153.104zM204.752 436.256c6.048-8.096 45.76-62.176 81.584-128 77.76 29.136 110.672 73.392 114.608 78.992-38.608 34.256-89.392 55.104-144.944 55.104-17.648 0-34.8-2.112-51.248-6.080zM425.264 361.952c-4.608-6.24-41.248-53.216-122.096-86.224 5.088-10.416 9.968-21.008 14.512-31.664 1.616-3.776 3.184-7.536 4.704-11.28 72.752 9.152 145.056-5.52 152.256-7.040-0.48 51.616-18.928 99.008-49.376 136.208z" />
<glyph unicode="&#xe674;" d="M280.928 276.496c-19.52 1.136-42.048-0.032-68.128-4.48l60.16-108.448 239.024 65.632c-2.576 6.128-6.336 12.112-11.328 17.904-24.736 28.64-78.368 54.192-136.8 65.712v0.016c-57.328 13.44-119.408 12.864-182.976 3.28-2.288-0.336-4.576-0.704-6.848-1.088l-21.136 39.152c-20.576-2.752-39.904-7.024-57.808-12.736l20.128-42.096c-32.88-12.736-59.856-30.88-79.328-52.72-32.112-36.528-44.8-82.448-29.376-127.168 3.104-9.024 7.296-17.584 12.464-25.6l239.040 65.648-66.368 122.928c2.272 0.432 4.592 0.88 6.96 1.312 107.344 19.152 166.048-10.432 198.208-41.92l-81.776-19.824-34.128 54.512zM87.36 166.8c-7.376 33.68-1.504 71.264 45.2 96.304l36.576-76.48-81.776-19.824z" />
<glyph unicode="&#xe675;" d="M426.688 480h-341.344c-46.944 0-85.344-38.416-85.344-85.344v-341.312c0-46.96 38.4-85.344 85.344-85.344h341.344c46.944 0 85.312 38.368 85.312 85.344v341.312c0 46.944-38.368 85.344-85.312 85.344zM480 53.344c0-14.16-5.568-27.536-15.68-37.664-10.112-10.112-23.472-15.68-37.632-15.68h-170.688v224h-224v170.656c0 14.16 5.568 27.52 15.696 37.648 10.128 10.128 23.488 15.696 37.648 15.696h170.656v-224h224v-170.656z" />
<glyph unicode="&#xe676;" d="M478.896 288h-28.704c-17.584 0-32.992 14.864-34.192 32v0c0 91.328-73.632 160-165.6 160h-83.92c-91.904 0-166.432-74-166.496-165.328v-181.392c0-91.328 74.592-165.264 166.496-165.264h179.216c91.968 0 166.304 73.936 166.304 165.264v117.184c0 18.256-14.72 37.536-33.104 37.536zM160 352h96c17.6 0 32-14.4 32-32s-14.4-32-32-32h-96c-17.6 0-32 14.4-32 32s14.4 32 32 32zM352 96h-192c-17.6 0-32 14.4-32 32s14.4 32 32 32h192c17.6 0 32-14.4 32-32s-14.4-32-32-32z" />
<glyph unicode="&#xe677;" d="M206.624 241.872c0 0 48.464 3.76 48.464 62.976s-39.648 88.112-89.856 88.112h-165.216v-330.912h165.216c0 0 100.832-3.296 100.832 97.632 0.032 0 4.4 82.176-59.44 82.176zM72.8 334.16h92.416c0 0 22.448 0 22.448-34.432 0-34.432-13.216-39.424-28.208-39.424h-86.656v73.856zM160.544 120.864h-87.728v88.448h92.416c0 0 33.488 0.464 33.488-45.44 0-38.704-25.008-42.72-38.176-43.008zM400.592 308.768c-122.112 0-122.016-127.104-122.016-127.104s-8.368-126.496 122.016-126.496c0 0 108.64-6.496 108.64 88.016h-55.856c0 0 1.84-35.616-50.912-35.616 0 0-55.888-3.888-55.888 57.552h164.528c0.032-0.032 18.016 143.648-110.512 143.648zM450.272 209.28h-104.288c0 0 6.832 51.024 55.888 51.024 48.992 0 48.416-51.024 48.416-51.024zM463.312 373.472h-131.024v-40.752h130.992v40.752z" />
<glyph unicode="&#xe678;" d="M389.12 224c0-73.52-59.616-133.12-133.12-133.12-73.52 0-133.12 59.6-133.12 133.12 0 8.752 0.864 17.312 2.512 25.6h-89.552v-176.944c0-37.984 30.768-68.816 68.816-68.816h302.688c37.984 0 68.816 30.8 68.816 68.816v176.944h-89.52c1.616-8.288 2.48-16.848 2.48-25.6zM407.344 444.16h-302.688c-38.016 0-68.816-30.816-68.816-68.816v-74.544h111.456c24.096 34.048 63.792 56.32 108.704 56.32s84.608-22.272 108.704-56.32h111.456v74.544c0 37.984-30.816 68.816-68.816 68.816zM441.008 359.168c0-6.784-5.536-12.288-12.288-12.288h-36.832c-6.752 0-12.288 5.536-12.288 12.288v36.864c0 6.784 5.552 12.288 12.288 12.288h36.832c6.784 0 12.288-5.536 12.288-12.288v-36.864zM337.92 224c0 45.264-36.688 81.92-81.92 81.92s-81.92-36.656-81.92-81.92 36.688-81.92 81.92-81.92 81.92 36.656 81.92 81.92z" />
<glyph unicode="&#xe679;" d="M409.792 73.184c-53.328 0.208-81.744 26.288-101.488 72.256l-5.648 12.544-48.688 111.008c-16.144 39.296-56.208 65.84-101.424 65.84-61.168 0-110.8-49.632-110.8-110.832 0-61.216 49.616-110.832 110.8-110.832 42.672 0 79.776 24.128 98.288 59.504l19.696-45.408c-27.952-34.080-70.432-55.792-117.984-55.792-84.256 0-152.544 68.256-152.544 152.544 0 84.256 68.288 152.592 152.544 152.592 63.584 0 114.912-33.952 140.992-94.128 1.984-4.672 27.584-64.544 49.92-115.504 13.84-31.536 25.632-52.464 63.872-53.76 37.584-1.296 63.376 21.584 63.376 50.512 0 28.256-19.664 35.040-52.88 46.080-59.696 19.664-90.496 39.424-90.496 86.752 0 46.176 31.408 76.96 82.464 76.96 33.248 0 57.248-14.8 73.872-44.288l-32.624-16.672c-12.288 17.2-25.856 24-43.088 24-23.952 0-41.056-16.672-41.056-38.832 0-31.456 28.144-36.208 67.504-49.12 52.976-17.248 77.6-36.96 77.6-86.176 0-51.664-44.336-89.296-102.208-89.216z" />
<glyph unicode="&#xe67a;" d="M64 224c0-74.016 44.16-137.984 108.208-168.288l-91.584 244.384c-10.656-23.248-16.624-48.992-16.624-76.096zM385.616 233.44c0 23.12-8.528 39.12-15.824 51.568-9.728 15.408-18.864 28.448-18.864 43.856 0 17.184 13.376 33.184 32.24 33.184 0.848 0 1.664-0.096 2.48-0.144-34.16 30.48-79.664 49.104-129.648 49.104-67.072 0-126.096-33.52-160.416-84.288 4.512-0.144 8.752-0.224 12.352-0.224 20.080 0 51.168 2.384 51.168 2.384 10.352 0.592 11.568-14.224 1.232-15.408 0 0-10.4-1.184-21.968-1.776l69.92-202.56 42.016 122.736-29.904 79.824c-10.336 0.592-20.144 1.776-20.144 1.776-10.352 0.592-9.136 16 1.216 15.408 0 0 31.696-2.384 50.56-2.384 20.080 0 51.168 2.384 51.168 2.384 10.352 0.592 11.568-14.224 1.216-15.408 0 0-10.416-1.184-21.968-1.776l69.392-201.008 19.152 62.32c8.288 25.872 14.608 44.448 14.608 60.448zM259.376 207.648l-57.616-163.024c17.2-4.928 35.392-7.616 54.24-7.616 22.352 0 43.808 3.76 63.76 10.608-0.512 0.8-0.992 1.648-1.376 2.576l-59.008 157.472zM424.48 313.712c0.832-5.952 1.296-12.336 1.296-19.232 0-18.96-3.648-40.304-14.608-66.976l-58.64-165.136c57.088 32.416 95.472 92.64 95.472 161.632 0 32.512-8.528 63.088-23.52 89.712zM256 480c-141.392 0-256-114.608-256-256s114.608-256 256-256 256 114.608 256 256-114.608 256-256 256zM256 0c-123.712 0-224 100.288-224 224s100.288 224 224 224 224-100.288 224-224-100.288-224-224-224z" />
<glyph unicode="&#xe67b;" d="M416 416h-320c-52.8 0-96-43.2-96-96v-192c0-52.8 43.2-96 96-96h320c52.8 0 96 43.2 96 96v192c0 52.8-43.2 96-96 96zM480 128c0-16.992-6.688-33.024-18.832-45.168s-28.176-18.832-45.168-18.832h-320c-16.992 0-33.024 6.688-45.168 18.832s-18.832 28.192-18.832 45.168v192c0 16.992 6.688 33.024 18.832 45.168s28.176 18.832 45.168 18.832h320c16.992 0 33.024-6.688 45.168-18.832s18.832-28.176 18.832-45.168v-192zM192 96l160 128-160 128z" />
<glyph unicode="&#xe67c;" d="M408.9 307.048c-6.449 61.257-57.158 108.954-118.768 108.954-49.312 0-91.641-30.558-109.883-74.167-8.386 2.817-17.343 4.347-26.651 4.347-47.127 0-85.333-39.073-85.333-87.272 0-7.758 0.995-15.278 2.853-22.438-41.253-13.522-71.118-53.063-71.118-99.744 0-57.839 45.846-104.727 102.4-104.727h273.066c75.406 0 136.534 62.517 136.534 139.637 0 65.32-43.858 120.158-103.1 135.41z" />
<glyph unicode="&#xe67d;" d="M138.667 330.392c-12.502 12.497-32.772 12.497-45.274 0l-83.8-83.765c-12.502-12.496-12.502-32.758 0-45.254l83.8-83.765c12.502-12.497 32.772-12.497 45.274 0 12.502 12.496 12.502 32.758 0 45.255l-61.164 61.137 61.164 61.137c12.502 12.497 12.502 32.759 0 45.255zM502.626 246.627l-83.801 83.765c-12.502 12.497-32.771 12.497-45.273 0-12.502-12.496-12.502-32.758 0-45.255l61.163-61.137-61.163-61.137c-12.502-12.497-12.502-32.759 0-45.255 12.502-12.497 32.771-12.497 45.273 0l83.801 83.765c12.502 12.496 12.502 32.758 0 45.254zM293.814 444.634c-17.416 3.053-34.009-8.585-37.063-25.992l-66.351-378.23c-3.054-17.407 8.588-33.993 26.003-37.046 17.415-3.052 34.008 8.585 37.062 25.992l66.352 378.229c3.054 17.408-8.588 33.994-26.003 37.047z" />
<glyph unicode="&#xe67e;" d="M128 416.001c0-31.999 0-192.001 0-256 176 63.999 176-63.999 351.999 0 0 31.999 0 191.999 0 256-175.999-64.001-175.999 64-351.999 0zM63.999 416.001c-17.673 0-32-7.163-32-16v-383.999c0-8.837 14.326-16.001 32-16.001s32 7.164 32 16.001v383.999c0 8.837-14.327 16-32 16z" />
<glyph unicode="&#xe67f;" d="M449.999 288h-321.999c-32 0-42.536-28.652-58-63.999l-42-118.856c-28-73.143-28-73.143 36-73.143h288c35.346 0 64 0 92 73.143l41.999 109.713c15.464 40.395 26 73.142-36 73.142zM135.999 320.002h216.001c31.999 0 64 0 64 31.999 0 32-32.001 32-64 32h-130c0 17.674-14.327 32-32 32h-70.001c-17.672 0-32-14.326-32-32h-23.999c-32 0-64-32-64-63.999v-192.002c0 0 36.157 110.679 68.458 162.776 11.753 18.958 30.982 29.226 67.541 29.226z" />
<glyph unicode="&#xe680;" d="M485.258 435.854c-0.107 0.118-0.216 0.235-0.325 0.352-0.031 0.033-0.064 0.066-0.097 0.1-10.141 10.731-26.238 14.651-40.666 8.616l-404.529-169.205c-18.618-7.787-27.398-29.193-19.61-47.811 6.064-14.499 20.388-23.028 35.222-22.416l129.247-10.49-9.109-140.875c-0.312-2.051-0.438-4.116-0.399-6.173l-0.006-0.098 0.008 0.012c0.24-11.406 5.791-22.531 15.933-29.45 16.671-11.373 39.406-7.078 50.779 9.593l247.111 362.23c9.844 14.431 7.941 33.4-3.559 45.615z" />
<glyph unicode="&#xe681;" d="M191.999 352.001c0 35.346 28.654 63.999 64 63.999 35.347 0 64-28.653 64-63.999v-96h64v96c0 70.692-57.307 128.001-128 128.001-70.692 0-127.999-57.309-127.999-128.001v-96h63.999v96zM383.999 224.001h-255.999c-35.347 0-64-28.654-64-63.999v-128c0-35.348 28.653-64.002 64-64.002h255.999c35.347 0 64.001 28.654 64.001 64.002v128c0 35.345-28.654 63.999-64.001 63.999zM288 64.001c0-17.673-14.327-31.999-32.001-31.999-17.672 0-32 14.326-32 31.999v63.999c0 17.674 14.327 32.002 32 32.002 17.674 0 32.001-14.328 32.001-32.002v-63.999z" />
<glyph unicode="&#xe682;" d="M300.428 315.833l3.807 5.919h97.936l-14.44-14.511c-12.437-12.497-12.437-32.757 0-45.254 12.436-12.497 32.599-12.497 45.034 0l68.802 69.137c12.436 12.497 12.436 32.757 0 45.254l-68.802 69.137c-12.436 12.497-32.599 12.497-45.034 0-12.437-12.496-12.437-32.757 0-45.253l14.439-14.511h-115.32c-11.757 0-22.019-6.408-27.535-15.933l-53.566-83.306-0.069 0.111-96.281-150.696c-0.518-0.812-1.146-1.517-1.85-2.136l-2.599-4.042h-72.857c-17.587 0-31.844-14.327-31.844-32s14.257-32 31.844-32h87.486c10.484-0.867 21.084 3.53 27.842 12.345l151.569 235.907c0.428 0.666 0.918 1.266 1.438 1.832zM31.845 320.25h77.795l39.318-63.173 38.047 59.55-31.451 50.532c-5.336 10.161-15.948 17.091-28.176 17.091h-95.533c-17.588 0-31.845-14.327-31.845-32s14.257-32 31.845-32zM502.683 118.878l-70.167 70.509c-12.437 12.497-32.599 12.497-45.035 0-12.436-12.496-12.436-32.758 0-45.255l15.805-15.882h-99.037l-42.659 68.541-38.152-59.381 35.76-57.456c0.25-0.424 0.51-0.841 0.779-1.252l0.152-0.245c0.020-0.031 0.042-0.060 0.062-0.090 0.005-0.008 0.010-0.015 0.015-0.021 6.349-9.771 17.269-14.779 28.224-14.096h114.857l-15.805-15.882c-12.436-12.497-12.436-32.759 0-45.255 12.437-12.497 32.599-12.497 45.035 0l70.167 70.51c6.111 6.141 9.213 14.157 9.317 22.205v0.844c-0.105 8.049-3.207 16.064-9.318 22.206z" />
<glyph unicode="&#xe683;" d="M505.329 473.329c0 0-168.764 33.158-252.402-50.48-25.158-25.158-48.882-67.155-69.76-113.581-22.905 0-98.225 0-119.541 0-25.24 0-63.101-37.86-63.101-63.101s0-75.721 0-75.721h130.395c-18.5-57.468-29.434-100.96-29.434-100.96s43.493 10.934 100.961 29.434v-130.395c0 0 50.48 0 75.72 0s63.101 37.86 63.101 63.101c0 41.48 0 99.991 0 119.541 46.426 20.878 88.423 44.602 113.581 69.76 83.638 83.638 50.48 252.402 50.48 252.402zM416.988 309.268c-20.91-20.909-54.811-20.909-75.721 0-20.909 20.91-20.909 54.811 0 75.721 20.91 20.909 54.811 20.909 75.721 0 20.909-20.911 20.909-54.811 0-75.721z" />
<glyph unicode="&#xe684;" d="M256 448.001c-123.712 0-224.001-100.288-224.001-224.001 0-123.711 100.289-223.999 224.001-223.999 123.712 0 224 100.288 224 223.999 0 123.713-100.288 224.001-224 224.001zM256 64c-88.366 0-160.001 71.635-160.001 160s71.635 160 160.001 160c88.364 0 160-71.635 160-160s-71.636-160-160-160zM304 224h-48v80c0 8.837-7.164 16.001-16.001 16.001-8.836 0-16-7.164-16-16.001v-95.999c0-8.836 7.163-16 16-16h64.001c8.836 0 15.999 7.164 15.999 16 0 8.837-7.163 15.999-15.999 15.999z" />
<glyph unicode="&#xe685;" d="M178.818 235.578c-22.627-22.627-158.391-158.391-158.391-158.391-24.994-24.994-24.994-65.517 0-90.51 11.77-11.771 26.985-17.992 42.399-18.677h5.71c15.415 0.685 30.629 6.906 42.4 18.677 0 0 135.764 135.765 158.392 158.392-44.578 14.931-77.078 47.431-90.51 90.509zM88.309 9.304c-12.497-12.496-32.758-12.496-45.255 0-12.497 12.497-12.497 32.759 0 45.255 12.497 12.497 32.758 12.497 45.255 0 12.497-12.497 12.497-32.758 0-45.255zM511.117 346.71l-123.011-79.885-61.694 36.246-8.019 71.104 123.011 79.885c-22.729 14.984-48.833 23.814-75.634 25.94h-25.172c-25.725-2.015-51.327-10.271-74.49-25.313-74.109-48.128-95.172-147.22-47.045-221.33 48.127-74.109 147.22-95.172 221.33-47.045 41.156 26.728 65.939 69.173 71.607 114.328v39.961c-0.257 2.039-0.547 4.076-0.883 6.109zM487.438 407.643c-0.006 0.009-0.012 0.018-0.018 0.027l0.035-0.054c-0.006 0.009-0.012 0.017-0.017 0.027z" />
<glyph unicode="&#xe686;" d="M437.019 405.020c-49.961 49.961-115.435 74.954-180.917 74.98h-0.205c-65.482-0.026-130.956-25.019-180.917-74.98-49.981-49.982-74.975-115.49-74.98-180.999v-0.041c0.005-65.509 24.999-131.017 74.98-180.998 99.975-99.976 262.065-99.976 362.039 0 99.974 99.974 99.974 262.064 0 362.038zM412.21 68.495c-14.929-14.929-39.133-14.929-54.062 0l-44.155 44.153c-8.335 8.335-12.006 19.56-11.030 30.447l-7.031 7.031c-20.501-13.958-45.26-22.126-71.932-22.126-70.692 0-128 57.309-128 128.001 0 70.691 57.308 128 128 128 70.693 0 128-57.309 128-128 0-26.672-8.166-51.434-22.124-71.936l6.462-6.462c11.279 1.39 23.058-2.234 31.717-10.894l44.155-44.153c14.929-14.928 14.929-39.132 0-54.061zM224 320.002c-35.346 0-64-28.654-64-64.001 0-35.346 28.654-64 64-64s64 28.654 64 64c0 35.347-28.654 64.001-64 64.001z" />
<glyph unicode="&#xe687;" d="M447.999 480h-383.999c-35.346 0-64-28.652-64-63.999v-256.001c0-35.345 28.654-63.999 64-63.999h384c35.346 0 64 28.654 64 63.999v256.001c0 35.347-28.654 63.999-64.001 63.999zM447.999 160h-383.999v256.001h384v-256.001zM368 0.001h-48.001v64.001h-127.999v-64.001h-48c-8.837 0-16-7.164-16-15.999 0-8.837 7.163-16.001 16-16.001h224c8.836 0 15.999 7.164 15.999 16.001 0 8.835-7.163 15.999-15.999 15.999z" />
<glyph unicode="&#xe688;" d="M391.304 247.759l-190.071 190.071c-13.122 13.121-34.396 13.121-47.518 0-13.122-13.122-13.122-34.396 0-47.518l166.312-166.312-166.311-166.311c-13.122-13.122-13.122-34.396 0-47.518s34.396-13.122 47.518 0l190.070 190.069c13.122 13.124 13.122 34.399 0 47.519z" />
<glyph unicode="&#xe689;" d="M469.328 168.734l-190.070 190.070c-13.121 13.123-34.395 13.123-47.517 0l-190.071-190.070c-13.122-13.121-13.122-34.396 0-47.517 13.122-13.122 34.396-13.122 47.518 0l166.312 166.312 166.312-166.311c13.121-13.122 34.396-13.122 47.517 0 13.121 13.121 13.121 34.395-0.001 47.516z" />
<glyph unicode="&#xe68a;" d="M416-32h-352c-17.664 0-32.752 6.256-45.248 18.752s-18.752 27.584-18.752 45.248v352c0 17.664 6.256 32.752 18.752 45.248s27.584 18.752 45.248 18.752h352c17.664 0 32.752-6.256 45.248-18.752s18.752-27.584 18.752-45.248v-352c0-17.664-6.256-32.752-18.752-45.248s-27.584-18.752-45.248-18.752zM128 272v64c0 4.336-1.584 8.080-4.752 11.248-3.168 3.168-6.912 4.752-11.248 4.752s-8.080-1.584-11.248-4.752c-3.168-3.168-4.752-6.912-4.752-11.248v-48h-48c-4.336 0-8.080-1.584-11.248-4.752s-4.752-6.912-4.752-11.248v-128c0-4.336 1.584-8.080 4.752-11.248 3.168-3.152 6.912-4.752 11.248-4.752h64c4.336 0 8.080 1.6 11.248 4.752 3.168 3.168 4.752 6.912 4.752 11.248v128zM176 352c-4.336 0-8.080-1.584-11.248-4.752-3.168-3.168-4.752-6.912-4.752-11.248s1.584-8.080 4.752-11.248c3.168-3.168 6.912-4.752 11.248-4.752s8.080 1.584 11.248 4.752c3.168 3.168 4.752 6.912 4.752 11.248s-1.584 8.080-4.752 11.248c-3.168 3.168-6.912 4.752-11.248 4.752zM192 272c0 4.336-1.584 8.080-4.752 11.248-3.168 3.168-6.912 4.752-11.248 4.752s-8.080-1.584-11.248-4.752c-3.168-3.168-4.752-6.912-4.752-11.248v-128c0-4.336 1.584-8.080 4.752-11.248 3.168-3.152 6.912-4.752 11.248-4.752s8.080 1.6 11.248 4.752c3.168 3.168 4.752 6.912 4.752 11.248v128zM320 144v128c0 4.336-1.6 8.080-4.752 11.248-3.168 3.168-6.912 4.752-11.248 4.752h-64c-4.336 0-8.080-1.584-11.248-4.752-3.168-3.168-4.752-6.912-4.752-11.248v-128c0-4.336 1.584-8.080 4.752-11.248 3.168-3.152 6.912-4.752 11.248-4.752h48v-32h-48c-4.336 0-8.080-1.6-11.248-4.752-3.168-3.168-4.752-6.912-4.752-11.248s1.584-8.080 4.752-11.248c3.168-3.152 6.912-4.752 11.248-4.752h64c4.336 0 8.080 1.6 11.248 4.752 3.152 3.168 4.752 6.912 4.752 11.248v64zM448 272c0 4.336-1.6 8.080-4.752 11.248-3.168 3.168-6.912 4.752-11.248 4.752h-64c-4.336 0-8.080-1.584-11.248-4.752-3.152-3.168-4.752-6.912-4.752-11.248v-128c0-4.336 1.6-8.080 4.752-11.248 3.168-3.152 6.912-4.752 11.248-4.752h48v-32h-48c-4.336 0-8.080-1.6-11.248-4.752-3.152-3.168-4.752-6.912-4.752-11.248s1.6-8.080 4.752-11.248c3.168-3.152 6.912-4.752 11.248-4.752h64c4.336 0 8.080 1.6 11.248 4.752 3.152 3.168 4.752 6.912 4.752 11.248v192zM384 256h32v-96h-32v96zM256 256h32v-96h-32v96zM64 256h32v-96h-32v96z" />
<glyph unicode="&#xe68b;" d="M457.143 461.714c0 10.131-8.192 18.286-18.286 18.286h-329.143c-10.13 0-18.285-8.156-18.285-18.286 0-10.13 0-18.286 0-18.286h365.714c0 0 0 8.192 0 18.286zM498.286 373.613c-31.781 33.060-41.143 33.243-41.143 33.243h-365.714c0 0-9.399-0.183-41.179-33.243-7.205-6.473-21.724-22.528-50.249-58.185 0-30.281 24.54-54.857 54.821-54.857 23.881 0 43.995 15.36 51.529 36.608 2.121-0.036 3.365-0.036 3.365-0.036h3.365c7.534-21.248 27.648-36.572 51.492-36.572s43.922 15.323 51.456 36.572h6.729c7.571-21.248 27.684-36.572 51.529-36.572s43.959 15.323 51.529 36.572h6.729c7.497-21.248 27.575-36.572 51.456-36.572s43.923 15.323 51.493 36.572h3.365c0 0 1.207 0 3.365 0.036 7.497-21.285 27.611-36.608 51.493-36.608 30.318 0 54.857 24.576 54.857 54.857-28.563 35.657-43.081 51.712-50.286 58.185zM457.143 224c-10.167 0-18.286-8.228-18.286-18.286v-54.857h-329.143v54.857c0 10.057-8.192 18.286-18.285 18.286-10.13 0-18.285-8.228-18.285-18.286v-201.179c0-20.151 16.384-36.535 36.572-36.535h329.143c20.188 0 36.535 16.384 36.535 36.535v201.179c0 10.057-8.156 18.286-18.249 18.286z" horiz-adv-x="549" />
</font>
</defs>
</svg>
